<svg xmlns="http://www.w3.org/2000/svg" width="24" height="24" fill="none" viewBox="0 0 24 24">
    <path fill="#696969" d="M14.036 2.777c1.467-.393 2.975.478 3.368 1.945l2.718 10.142c.393 1.467-.478 2.975-1.945 3.368l-6.279 1.683c-1.467.393-2.975-.478-3.368-1.945L5.813 7.828C5.42 6.36 6.29 4.853 7.757 4.46l6.279-1.683zm-8.233 8.881l1.761 6.57c.181.676.536 1.259 1.003 1.714l-.443-.024c-1.517-.08-2.682-1.373-2.603-2.89l.282-5.37zm8.621-7.432L8.146 5.91c-.667.178-1.063.864-.884 1.53l2.717 10.143c.179.667.864 1.062 1.531.884l6.279-1.683c.667-.178 1.062-.864.884-1.53L15.955 5.11c-.179-.667-.864-1.062-1.53-.884zM4.878 10.18l-.355 6.796c-.037.698.12 1.362.424 1.94l-.414-.161c-1.418-.544-2.126-2.135-1.582-3.553l1.927-5.022zm4.863-3.146c.534-.143 1.082.174 1.225.707.143.534-.174 1.082-.707 1.225-.534.143-1.082-.174-1.225-.707-.143-.534.174-1.082.707-1.225z"/>
</svg>
