<svg width="58" height="58" viewBox="0 0 58 58" fill="none" xmlns="http://www.w3.org/2000/svg">
<mask id="mask0" mask-type="alpha" maskUnits="userSpaceOnUse" x="4" y="4" width="49" height="49">
<path fill-rule="evenodd" clip-rule="evenodd" d="M4.7959 28.7753C4.7959 15.5387 15.5147 4.79588 28.7513 4.79588C42.0119 4.79588 52.7547 15.5387 52.7547 28.7753C52.7547 42.0119 42.0119 52.7547 28.7513 52.7547C15.5147 52.7547 4.7959 42.0119 4.7959 28.7753ZM20.3826 19.1835C18.396 19.1835 16.7857 20.7939 16.7857 22.7804C16.7857 24.7669 18.396 26.3773 20.3826 26.3773C22.3691 26.3773 23.9795 24.7669 23.9795 22.7804C23.9795 20.7939 22.3691 19.1835 20.3826 19.1835ZM37.1681 19.1835C35.1816 19.1835 33.5712 20.7939 33.5712 22.7804C33.5712 24.7669 35.1816 26.3773 37.1681 26.3773C39.1546 26.3773 40.765 24.7669 40.765 22.7804C40.765 20.7939 39.1546 19.1835 37.1681 19.1835ZM28.7753 47.9588C18.1765 47.9588 9.59183 39.3742 9.59183 28.7753C9.59183 18.1764 18.1765 9.59176 28.7753 9.59176C39.3742 9.59176 47.9589 18.1764 47.9589 28.7753C47.9589 39.3742 39.3742 47.9588 28.7753 47.9588ZM17.6248 39.7579C20.0707 35.8972 24.2192 33.5712 28.7753 33.5712C33.3313 33.5712 37.4798 35.8732 39.9497 39.7579C40.4772 40.5971 40.2134 41.7002 39.3742 42.2277C39.0624 42.3956 38.7507 42.4915 38.415 42.4915C37.8155 42.4915 37.216 42.2037 36.8803 41.6522C35.1058 38.8227 32.0844 37.1441 28.7753 37.1441C25.4661 37.1441 22.4447 38.8227 20.6702 41.6522C20.1427 42.4915 19.0396 42.7553 18.2003 42.2277C17.3611 41.7002 17.0973 40.5971 17.6248 39.7579Z" fill="black"/>
</mask>
<g mask="url(#mask0)">
<rect width="57.5506" height="57.5506" fill="#858C94"/>
</g>
</svg>
