<svg xmlns="http://www.w3.org/2000/svg" width="24" height="24" fill="none" viewBox="0 0 24 24">
    <path fill="#42526E" d="M6.248 16.002c.966 0 1.75.784 1.75 1.75v2.498c0 .966-.784 1.75-1.75 1.75H3.75C2.784 22 2 21.216 2 20.25v-2.498c0-.966.784-1.75 1.75-1.75h2.498zm0 1.5H3.75c-.138 0-.25.112-.25.25v2.498c0 .138.112.25.25.25h2.498c.138 0 .25-.112.25-.25v-2.498c0-.138-.112-.25-.25-.25zm3.5.498h11.505c.414 0 .75.336.75.75 0 .38-.282.694-.648.743l-.102.007H9.748c-.414 0-.75-.336-.75-.75 0-.38.282-.694.648-.743L9.748 18h11.505H9.748zm-3.5-8.999c.966 0 1.75.784 1.75 1.75v2.498c0 .966-.784 1.75-1.75 1.75H3.75c-.966 0-1.75-.784-1.75-1.75V10.75c0-.966.784-1.75 1.75-1.75h2.498zm0 1.5H3.75c-.138 0-.25.112-.25.25v2.498c0 .138.112.25.25.25h2.498c.138 0 .25-.112.25-.25V10.75c0-.138-.112-.25-.25-.25zm3.5.499h11.505c.414 0 .75.336.75.75 0 .38-.282.694-.648.743l-.102.007H9.748c-.414 0-.75-.336-.75-.75 0-.38.282-.694.648-.743L9.748 11h11.505H9.748zm-3.5-9c.966 0 1.75.784 1.75 1.75v2.498c0 .966-.784 1.75-1.75 1.75H3.75c-.966 0-1.75-.784-1.75-1.75V3.75C2 2.784 2.784 2 3.75 2h2.498zm0 1.5H3.75c-.138 0-.25.112-.25.25v2.498c0 .138.112.25.25.25h2.498c.138 0 .25-.112.25-.25V3.75c0-.138-.112-.25-.25-.25zm3.5.5h11.505c.414 0 .75.336.75.75 0 .38-.282.693-.648.743l-.102.007H9.748c-.414 0-.75-.336-.75-.75 0-.38.282-.693.648-.743L9.748 4h11.505H9.748z"/>
</svg>
