<svg xmlns="http://www.w3.org/2000/svg" width="112" height="40" fill="none" viewBox="0 0 112 40">
    <path fill="url(#paint0_linear)" d="M16.637 19.518l12.205-7.092v14.717l-12.205 7.132V19.518z"/>
    <path fill="url(#paint1_linear)" d="M16.637 19.518l12.205-7.092v14.717l-12.205 7.132V19.518z"/>
    <path fill="url(#paint2_linear)" d="M4.47 12.386l12.186-7.151 12.205 7.151-12.205 7.152L4.47 12.386z"/>
    <path fill="url(#paint3_linear)" d="M16.637 39.51L0 29.85V9.74L16.656 0l16.636 9.759-.038 20.09-16.617 9.661zM2.118 28.605l14.519 8.436 14.517-8.436.04-17.602L16.655 2.47 2.118 10.964v17.641z"/>
    <path fill="url(#paint4_linear)" d="M4.45 12.367l12.187 7.151v14.698L4.45 27.143V12.367z"/>
    <path fill="#000" d="M54.445 27.948h-3.817l-1.106-3.612h-5.53l-1.096 3.612h-3.795l5.66-16.238h4.154l5.53 16.238zm-5.726-6.42l-1.67-5.458c-.122-.408-.21-.895-.26-1.46h-.087c-.036.475-.126.947-.27 1.415l-1.692 5.503h3.98zM55.67 27.325v-3.623c.63.55 1.313.966 2.05 1.245.738.272 1.482.408 2.234.408.441 0 .824-.042 1.15-.125.332-.083.607-.196.824-.34.224-.15.39-.324.499-.52.108-.204.162-.423.162-.657 0-.317-.086-.6-.26-.85-.173-.248-.412-.479-.716-.69-.296-.211-.65-.415-1.062-.611-.413-.197-.857-.397-1.334-.6-1.215-.53-2.122-1.174-2.722-1.937-.593-.762-.89-1.683-.89-2.763 0-.845.163-1.57.489-2.174.325-.611.766-1.113 1.323-1.506.563-.392 1.214-.679 1.952-.86.737-.189 1.518-.283 2.342-.283.81 0 1.525.053 2.147.158.63.098 1.208.253 1.735.465v3.385c-.26-.189-.546-.355-.856-.498-.304-.144-.619-.26-.944-.351-.325-.098-.65-.17-.976-.215-.318-.046-.622-.068-.91-.068-.398 0-.76.041-1.085.124-.326.076-.6.185-.824.329-.224.143-.398.317-.521.52-.123.197-.184.42-.184.669 0 .271.068.517.206.736.137.21.332.415.585.611.253.189.56.378.922.566.362.181.77.37 1.225.566.622.272 1.179.563 1.67.872.5.302.926.646 1.28 1.03.354.386.626.827.814 1.325.187.491.281 1.065.281 1.721 0 .906-.166 1.669-.498 2.288-.326.611-.77 1.11-1.334 1.494-.564.378-1.222.65-1.974.816-.745.166-1.533.249-2.364.249-.853 0-1.666-.076-2.44-.227-.766-.15-1.431-.377-1.995-.68zM68.12 27.325v-3.623c.629.55 1.312.966 2.05 1.245.737.272 1.482.408 2.233.408.441 0 .825-.042 1.15-.125.332-.083.607-.196.824-.34.224-.15.39-.324.499-.52.108-.204.163-.423.163-.657 0-.317-.087-.6-.26-.85-.174-.248-.413-.479-.716-.69-.297-.211-.651-.415-1.063-.611-.412-.197-.857-.397-1.334-.6-1.215-.53-2.122-1.174-2.722-1.937-.593-.762-.89-1.683-.89-2.763 0-.845.164-1.57.489-2.174.325-.611.766-1.113 1.323-1.506.564-.392 1.215-.679 1.952-.86.737-.189 1.518-.283 2.342-.283.81 0 1.526.053 2.147.158.63.098 1.208.253 1.736.465v3.385c-.26-.189-.546-.355-.857-.498-.304-.144-.618-.26-.944-.351-.325-.098-.65-.17-.976-.215-.318-.046-.621-.068-.91-.068-.398 0-.76.041-1.085.124-.325.076-.6.185-.824.329-.224.143-.398.317-.52.52-.124.197-.185.42-.185.669 0 .271.069.517.206.736.137.21.333.415.586.611.253.189.56.378.921.566.362.181.77.37 1.226.566.621.272 1.178.563 1.67.872.499.302.925.646 1.28 1.03.354.386.625.827.813 1.325.188.491.282 1.065.282 1.721 0 .906-.167 1.669-.5 2.288-.325.611-.77 1.11-1.333 1.494-.564.378-1.222.65-1.974.816-.744.166-1.532.249-2.364.249-.853 0-1.666-.076-2.44-.227-.766-.15-1.431-.377-1.995-.68zM84.788 27.948h-3.503V11.71h3.503v16.238zM87.618 27.325v-3.623c.629.55 1.312.966 2.05 1.245.737.272 1.482.408 2.233.408.442 0 .825-.042 1.15-.125.333-.083.607-.196.824-.34.224-.15.39-.324.499-.52.109-.204.163-.423.163-.657 0-.317-.087-.6-.26-.85-.174-.248-.413-.479-.716-.69-.297-.211-.65-.415-1.063-.611-.412-.197-.857-.397-1.334-.6-1.214-.53-2.122-1.174-2.722-1.937-.593-.762-.889-1.683-.889-2.763 0-.845.163-1.57.488-2.174.325-.611.766-1.113 1.323-1.506.564-.392 1.215-.679 1.952-.86.737-.189 1.518-.283 2.342-.283.81 0 1.526.053 2.147.158.63.098 1.208.253 1.736.465v3.385c-.26-.189-.546-.355-.857-.498-.304-.144-.618-.26-.944-.351-.325-.098-.65-.17-.976-.215-.318-.046-.621-.068-.91-.068-.398 0-.76.041-1.085.124-.325.076-.6.185-.824.329-.224.143-.398.317-.52.52-.123.197-.185.42-.185.669 0 .271.069.517.206.736.137.21.333.415.586.611.253.189.56.378.921.566.362.181.77.37 1.226.566.622.272 1.178.563 1.67.872.499.302.925.646 1.28 1.03.354.386.625.827.813 1.325.188.491.282 1.065.282 1.721 0 .906-.166 1.669-.5 2.288-.324.611-.769 1.11-1.333 1.494-.564.378-1.222.65-1.974.816-.744.166-1.532.249-2.364.249-.853 0-1.666-.076-2.44-.227-.766-.15-1.431-.377-1.995-.68zM111.703 14.688h-4.435v13.26h-3.514v-13.26h-4.413V11.71h12.362v2.978z"/>
    <defs>
        <linearGradient id="paint0_linear" x1="29.889" x2="15.265" y1="30.629" y2="16.242" gradientUnits="userSpaceOnUse">
            <stop offset=".19" stop-color="#8B0E1A"/>
            <stop offset=".519" stop-color="#C4161C"/>
            <stop offset="1" stop-color="#ED1C24"/>
        </linearGradient>
        <linearGradient id="paint1_linear" x1="29.889" x2="15.265" y1="30.629" y2="16.242" gradientUnits="userSpaceOnUse">
            <stop offset=".19" stop-color="#8B0E1A"/>
            <stop offset=".519" stop-color="#C4161C"/>
            <stop offset="1" stop-color="#ED1C24"/>
        </linearGradient>
        <linearGradient id="paint2_linear" x1="16.665" x2="16.665" y1="20.832" y2="1.284" gradientUnits="userSpaceOnUse">
            <stop offset=".19" stop-color="#8B0E1A"/>
            <stop offset=".519" stop-color="#C4161C"/>
            <stop offset="1" stop-color="#ED1C24"/>
        </linearGradient>
        <linearGradient id="paint3_linear" x1="0" x2="33.306" y1="19.758" y2="19.758" gradientUnits="userSpaceOnUse">
            <stop offset=".19" stop-color="#8B0E1A"/>
            <stop offset=".519" stop-color="#C4161C"/>
            <stop offset="1" stop-color="#ED1C24"/>
        </linearGradient>
        <linearGradient id="paint4_linear" x1="10.545" x2="10.545" y1="41.415" y2="8.23" gradientUnits="userSpaceOnUse">
            <stop offset=".19" stop-color="#8B0E1A"/>
            <stop offset=".519" stop-color="#C4161C"/>
            <stop offset="1" stop-color="#ED1C24"/>
        </linearGradient>
    </defs>
</svg>
