<svg xmlns="http://www.w3.org/2000/svg" width="24" height="24" fill="none" viewBox="0 0 24 24">
    <path fill="#263238" d="M17.5 12c3.038 0 5.5 2.462 5.5 5.5S20.538 23 17.5 23 12 20.538 12 17.5s2.462-5.5 5.5-5.5zm-2.476 3.024c-.195.195-.195.512 0 .707l1.769 1.77-1.767 1.766c-.195.196-.195.512 0 .708.196.195.512.195.707 0l1.767-1.767 1.77 1.769c.195.195.511.195.707 0 .195-.195.195-.512 0-.707L18.208 17.5l1.771-1.77c.195-.195.195-.512 0-.707-.195-.195-.512-.195-.707 0l-1.771 1.77-1.77-1.77c-.195-.195-.512-.195-.707 0zM17.75 3C19.545 3 21 4.455 21 6.25l.001 5.773c-.463-.297-.967-.537-1.5-.71L19.5 8.5h-15v9.25c0 .966.784 1.75 1.75 1.75h5.064c.172.534.412 1.038.709 1.501L6.25 21C4.455 21 3 19.545 3 17.75V6.25C3 4.455 4.455 3 6.25 3h11.5zm0 1.5H6.25c-.966 0-1.75.784-1.75 1.75V7h15v-.75c0-.966-.784-1.75-1.75-1.75z"/>
</svg>
