<svg xmlns="http://www.w3.org/2000/svg" width="24" height="24" fill="none" viewBox="0 0 24 24">
    <path fill="#696969" d="M12 2c5.523 0 10 4.477 10 10s-4.477 10-10 10c-1.618 0-3.182-.385-4.587-1.112l-3.826 1.067c-.665.186-1.354-.202-1.54-.867-.062-.22-.062-.453 0-.673l1.068-3.823C2.386 15.186 2 13.62 2 12 2 6.477 6.477 2 12 2zm0 1.5c-4.694 0-8.5 3.806-8.5 8.5 0 1.47.373 2.883 1.073 4.137l.15.27-1.112 3.984 3.987-1.112.27.15C9.12 20.13 10.531 20.5 12 20.5c4.694 0 8.5-3.806 8.5-8.5S16.694 3.5 12 3.5zm0 12c.552 0 1 .448 1 1s-.448 1-1 1-1-.448-1-1 .448-1 1-1zm0-8.75c1.519 0 2.75 1.231 2.75 2.75 0 1.01-.297 1.574-1.051 2.359l-.169.171c-.622.622-.78.886-.78 1.47 0 .414-.336.75-.75.75s-.75-.336-.75-.75c0-1.01.297-1.574 1.051-2.359l.169-.171c.622-.622.78-.886.78-1.47 0-.69-.56-1.25-1.25-1.25-.647 0-1.18.492-1.243 1.122l-.007.128c0 .414-.336.75-.75.75s-.75-.336-.75-.75c0-1.519 1.231-2.75 2.75-2.75z"/>
</svg>
