<svg xmlns="http://www.w3.org/2000/svg" width="25" height="24" fill="none" viewBox="0 0 25 24">
    <path fill="#42526E" d="M18.75 3c1.519 0 2.75 1.231 2.75 2.75v12.5c0 1.519-1.231 2.75-2.75 2.75H6.25c-1.519 0-2.75-1.231-2.75-2.75V5.75C3.5 4.231 4.731 3 6.25 3h12.5zm0 1.5H6.25C5.56 4.5 5 5.06 5 5.75v12.5c0 .69.56 1.25 1.25 1.25h12.5c.69 0 1.25-.56 1.25-1.25V5.75c0-.69-.56-1.25-1.25-1.25zm-8.25 9.94l6.47-6.47c.293-.293.767-.293 1.06 0 .267.266.29.683.073.976l-.073.084-7 7c-.266.267-.683.29-.976.073l-.084-.073-3-3c-.293-.293-.293-.767 0-1.06.266-.267.683-.29.976-.073l.084.073 2.47 2.47 6.47-6.47-6.47 6.47z"/>
</svg>
