<svg xmlns="http://www.w3.org/2000/svg" width="24" height="19" fill="none" viewBox="0 0 24 19">
    <g clip-path="url(#clip0)">
        <path fill="#fff" stroke="#007E48" stroke-width=".75" d="M17.544 9.067V5.74c.012-.108-.087-.19-.102-.2h-.002v-.002c-.06-.037-.136-.088-.205-.14 0 0-.352-.255-.05-.506 0 0 .113-.072.304-.174.056-.03.052-.144.048-.188C17.25 2.066 14.963.046 12.335.046c-2.8 0-5.745 2.282-5.792 4.984-.012.09.067.13.067.13.206.118.305.206.305.206.284.256-.045.507-.045.507-.102.082-.212.162-.253.189-.058.038-.072.11-.074.155v2.85H5.16c-2.824 0-5.113 2.214-5.113 4.944s2.29 4.944 5.113 4.944h13.677c2.824 0 5.114-2.214 5.114-4.944s-2.29-4.944-5.114-4.944H17.544z"/>
        <path fill="#007E48" d="M15.862 3.627c.015.03.215.537.277.788l.088.314c.062.206-.056.256-.056.256-.372.17-.604.321-.604.321-.303.25.049.506.049.506.135.1.301.201.301.201s.197.13.252.21c.109.156.09.386.09.386l.005.98-.003.367v1.353l-.016.175s-.018.446-.545.48l-4.232.003s-.731.01-.731-.605v-.718l.002-1.13v-.899l-.005-.025c-.026-.078-.122-.122-.205-.097l-1.024.328-.506.162c-.074.024-.116.093-.106.165l-.01.667-.008 1.074v.553s-.004.528-.467.528l-.755-.004s-.603.054-.603-.617l.003-2.685s-.02-.23.083-.385c.05-.078.234-.207.234-.207s.115-.097.241-.195c0 0 .33-.253.044-.507 0 0-.181-.155-.534-.33 0 0-.11-.053-.053-.259 0 0 .193-1.022.953-1.996l.301-.333c.065-.067.147-.145.218-.212 0 0 .33-.286.338.106l-.001.137.005.11.005 1.537v.9l.005.025c.028.08.114.123.198.098l1.025-.328.506-.16c.073-.024.126-.095.114-.167l.002-.666v-1.74l.005-.213.003-.13s-.027-.588.565-.683c0 0 1.1-.154 2.408.454 0 0 1.328.546 2.048 1.924l.068.122.028.061zm-3.288 1.475v2.53s-.055.547.413.547h1.021s.42.063.42-.397v-.535s.037-.277-.18-.416l-.119-.1-.16-.11-.209-.136-.004-.199v-.412l.005-.95s-.003-.277.198-.448l.402-.364s.106-.128-.011-.31c0 0-.284-.59-1.312-.922 0 0-.463-.16-.463.31v1.912"/>
        <path fill="#ABCC59" d="M16.84 4l.073.313c.062.206-.057.256-.057.256-.373.17-.604.322-.604.322-.3.25.048.504.048.504.135.101.302.201.302.201s.196.13.252.211c.108.155.088.385.088.385l.006.983-.002.365-.001 1.353-.014.176s-.02.444-.545.48l-4.233.003s-.74.013-.74-.604v-.72l.003-1.128-.001-.902-.004-.024c-.028-.08-.114-.123-.197-.097l-1.026.327-.504.163c-.073.024-.116.093-.106.165v2.292s-.024.53-.484.53l-.757-.005s-.603.056-.603-.617V6.247s-.018-.23.084-.386c.05-.077.234-.207.234-.207s.156-.098.282-.195c0 0 .329-.251.044-.506 0 0-.198-.156-.547-.332 0 0-.113-.05-.056-.257 0 0 .167-1.025.924-1.996l.303-.334c.065-.067.146-.145.218-.212 0 0 .34-.288.347.106v.137l.002.11-.002 1.536v.902l.005.024c.026.08.114.123.196.097l1.027-.327.504-.162c.073-.022.117-.094.105-.166l.012-.667-.001-1.736.004-.211.002-.132s-.027-.586.564-.682c0 0 1.1-.155 2.41.453 0 0 1.328.546 2.045 1.925.005.002.297.605.4.97zm-3.583.688v2.53s-.056.547.414.547h1.02s.412.064.412-.397v-.533s.043-.278-.174-.418l-.119-.1-.16-.111-.191-.135-.004-.2V5.46l-.003-.95s-.014-.279.188-.448l.4-.364s.108-.13-.01-.311c0 0-.284-.589-1.313-.92 0 0-.461-.162-.461.31v1.911"/>
        <path stroke="#007E48" stroke-width=".53" d="M13.257 4.688v2.53s-.056.547.414.547h1.02s.412.064.412-.397v-.533s.043-.278-.174-.418l-.119-.1-.16-.111-.191-.135-.004-.2V5.46l-.003-.95s-.014-.279.188-.448l.4-.364s.108-.13-.01-.311c0 0-.284-.589-1.313-.92 0 0-.461-.162-.461.31v1.911M16.84 4l.073.313c.062.206-.057.256-.057.256-.373.17-.604.322-.604.322-.3.25.048.504.048.504.135.101.302.201.302.201s.196.13.252.211c.108.155.088.385.088.385l.006.983-.002.365-.001 1.353-.014.176s-.02.444-.545.48l-4.233.003s-.74.013-.74-.604v-.72l.003-1.128-.001-.902-.004-.024c-.028-.08-.114-.123-.197-.097l-1.026.327-.504.163c-.073.024-.116.093-.106.165v2.292s-.024.53-.484.53l-.757-.005s-.603.056-.603-.617V6.247s-.018-.23.084-.386c.05-.077.234-.207.234-.207s.156-.098.282-.195c0 0 .329-.251.044-.506 0 0-.198-.156-.547-.332 0 0-.113-.05-.056-.257 0 0 .167-1.025.924-1.996l.303-.334c.065-.067.146-.145.218-.212 0 0 .34-.288.347.106v.137l.002.11-.002 1.536v.902l.005.024c.026.08.114.123.196.097l1.027-.327.504-.162c.073-.022.117-.094.105-.166l.012-.667-.001-1.736.004-.211.002-.132s-.027-.586.564-.682c0 0 1.1-.155 2.41.453 0 0 1.328.546 2.045 1.925.005.002.297.605.4.97z"/>
        <path fill="#007E48" d="M18.838 9.55c2.548 0 4.613 1.997 4.613 4.46 0 2.462-2.065 4.459-4.613 4.459H5.16c-2.546 0-4.613-1.997-4.613-4.46S2.614 9.55 5.16 9.55h13.678z"/>
        <path fill="#fff" d="M3.997 12.844H2.859v-.95h-.383v1.08c0 .132.119.238.266.238h1.372c.161 0 .265-.106.265-.237v-1.081h-.382v.95zM15.674 11.382h-.383v1.83h.383v-1.83zM10.443 11.382h-.383v1.83h.383v-1.83zM5.11 11.382h-.382v1.83h.382v-1.83zM9.489 11.894H7.87v.365h1.457v.586H6.941v-.728c0-.24-.239-.222-.239-.222H5.677c-.228 0-.22.222-.22.222v.848c0 .308.374.248.374.248h.728v.33H5.458v.362h1.247c.246 0 .236-.192.236-.192v-.5H9.49c.122 0 .223-.096.223-.214v-.89c-.001-.12-.102-.215-.224-.215zm-3.65.364h.72v.586h-.72v-.586zM14.72 11.891h-.094c-.019 0-.036.003-.055.008h-.086v-.371h-.383v.37h-.608v.361h1.067v.586h-2.566v-.948h-.383v1.1c0 .118.1.216.224.216h2.884c.122 0 .223-.097.223-.216v-.89c0-.118-.1-.216-.223-.216zM21.31 11.894h-1.613v.365h1.461v.586h-2.37v-1.449h-.383v1.448H17.5v-.729c0-.239-.237-.221-.237-.221h-1.025c-.23 0-.218.221-.218.221v.849c0 .308.373.248.373.248h.747v.33h-1.12v.04h-.005v.326l1.252-.003c.244 0 .232-.192.232-.192v-.503h3.816c.122 0 .224-.103.224-.22v-.836c0-.118-.106-.26-.23-.26zm-4.191.95l-.716-.001v-.585h.716v.586zM14.485 11.016h-.383v.366h.383v-.366zM13.694 13.543h-.383v.365h.383v-.365zM13.082 13.543H12.7v.365h.382v-.365zM9.282 11.382h-.383v.365h.383v-.365zM3.656 11.382h-.383v.365h.383v-.365zM6.473 14.78h-.384v1.829H7.35v-.396h-.877V14.78zm2.777 0l-.252 1.107-.315-1.106h-.429l-.316 1.106-.252-1.106h-.384l.418 1.828h.394l.353-1.238.353 1.238h.396l.418-1.828H9.25zm-5.727.716h-.665v-.715h-.383v1.828h.383v-.716h.665v.716h.383V14.78h-.383v.715zm1.26-.715l-.704 1.828h.383l.161-.422h.721l.163.422h.383l-.704-1.828h-.404zm-.007 1.01l.209-.542.208.542h-.417zm11.018-.168c.076-.037.138-.09.184-.162.044-.073.068-.152.068-.24 0-.078-.018-.151-.054-.215-.037-.064-.082-.116-.14-.156-.052-.039-.115-.039-.184-.051-.071-.012-.176-.017-.317-.017h-.715v1.828h.608c.23-.001.374-.006.436-.012.096-.011.177-.04.242-.09.063-.045.116-.11.154-.19.038-.078.057-.161.057-.245 0-.108-.03-.202-.087-.28-.06-.082-.143-.137-.252-.17zm-.776-.56h.186c.17 0 .272.003.308.007.061.008.106.03.138.067.03.034.045.08.045.139 0 .06-.017.107-.053.143-.035.038-.084.06-.145.067-.035.004-.12.006-.262.006h-.214v-.429h-.003zm.691 1.147c-.033.04-.078.064-.131.073-.037.009-.118.013-.247.013h-.313v-.498h.269c.164 0 .272.01.321.027.05.019.087.048.114.086.026.039.039.086.039.142 0 .066-.02.118-.052.157zm-5.502-1.43l-.7 1.829h.381l.162-.422h.72l.163.422h.382l-.702-1.828h-.406zm-.005 1.011l.21-.542.209.542h-.419zm7.422.157c-.053-.058-.116-.108-.194-.156.156-.024.274-.081.352-.171.08-.092.118-.207.118-.345 0-.11-.026-.182-.078-.267-.05-.086-.12-.145-.208-.178-.087-.034-.226-.05-.416-.05h-.76v1.828h.384v-.773h.05c.084 0 .145.009.182.02.038.015.075.04.109.078.035.036.098.128.191.27l.261.405h.433l-.22-.362c-.087-.143-.155-.244-.204-.299zm-.558-.408h-.244v-.445h.259c.146 0 .234.001.263.006.058.01.102.036.135.072.034.038.05.064.05.127 0 .056-.013.101-.037.139-.025.038-.058.065-.102.078-.043.016-.152.023-.324.023zm1.966-.76c-.146 0-.274.025-.385.074-.083.035-.162.093-.231.167-.07.075-.126.158-.166.255-.055.127-.081.228-.081.416 0 .296.077.495.234.663.157.168.369.254.635.254.263 0 .472-.086.63-.255.158-.168.236-.37.236-.669 0-.303-.08-.48-.239-.65-.158-.17-.369-.254-.633-.254zm.359 1.348c-.092.107-.211.162-.355.162-.143 0-.263-.055-.357-.164-.094-.108-.14-.234-.14-.445 0-.214.046-.314.137-.42.09-.107.21-.16.36-.16.148 0 .268.053.357.157.09.105.136.205.136.419.002.215-.046.342-.138.45zm-6.861-.193l-.655-1.154h-.382v1.828h.382v-1.153l.655 1.153h.383V14.78h-.383v1.154zm.732.674h.382V14.78h-.382v1.828zm8.204-.82c-.05-.076-.116-.136-.204-.18-.087-.045-.224-.087-.405-.13-.183-.041-.296-.08-.344-.12-.037-.029-.056-.064-.056-.107 0-.046.02-.083.06-.11.061-.043.146-.065.255-.065.105 0 .186.02.237.06.052.04.087.106.104.197l.373-.016c-.006-.162-.068-.293-.185-.391-.116-.096-.292-.146-.525-.146-.142 0-.265.02-.364.06-.101.043-.178.103-.23.181-.054.08-.082.165-.082.255 0 .14.058.26.17.357.081.07.221.128.422.177.156.036.256.063.3.078.064.022.108.047.135.076.026.03.036.065.036.108 0 .065-.029.123-.09.171-.062.05-.153.076-.273.076-.113 0-.203-.028-.27-.083-.068-.056-.112-.141-.133-.26l-.365.036c.024.2.1.35.225.454.126.104.305.157.54.157.16 0 .293-.021.401-.065.109-.043.192-.11.25-.199.06-.09.09-.184.09-.287.002-.111-.022-.208-.072-.283z"/>
    </g>
    <defs>
        <clipPath id="clip0">
            <path fill="#fff" d="M0 0H24V19H0z"/>
        </clipPath>
    </defs>
</svg>
