<svg width="58" height="58" viewBox="0 0 58 58" fill="none" xmlns="http://www.w3.org/2000/svg">
<mask id="mask0" mask-type="alpha" maskUnits="userSpaceOnUse" x="4" y="4" width="49" height="49">
<path fill-rule="evenodd" clip-rule="evenodd" d="M28.8636 4.79588C15.627 4.79588 4.9082 15.5387 4.9082 28.7753C4.9082 42.0119 15.627 52.7547 28.8636 52.7547C42.1242 52.7547 52.867 42.0119 52.867 28.7753C52.867 15.5387 42.1242 4.79588 28.8636 4.79588ZM16.898 22.7804C16.898 20.7939 18.5084 19.1835 20.4949 19.1835C22.4814 19.1835 24.0918 20.7939 24.0918 22.7804C24.0918 24.7669 22.4814 26.3773 20.4949 26.3773C18.5084 26.3773 16.898 24.7669 16.898 22.7804ZM37.2804 19.1835C35.2939 19.1835 33.6835 20.7939 33.6835 22.7804C33.6835 24.7669 35.2939 26.3773 37.2804 26.3773C39.2669 26.3773 40.8773 24.7669 40.8773 22.7804C40.8773 20.7939 39.2669 19.1835 37.2804 19.1835ZM23.4922 37.1681H34.283C35.2661 37.1681 36.0814 36.3528 36.0814 35.3696C36.0814 34.3865 35.2661 33.5712 34.283 33.5712H23.4922C22.5091 33.5712 21.6938 34.3865 21.6938 35.3696C21.6938 36.3528 22.5091 37.1681 23.4922 37.1681ZM9.70413 28.7753C9.70413 39.3742 18.2888 47.9588 28.8877 47.9588C39.4865 47.9588 48.0712 39.3742 48.0712 28.7753C48.0712 18.1764 39.4865 9.59176 28.8877 9.59176C18.2888 9.59176 9.70413 18.1764 9.70413 28.7753Z" fill="black"/>
</mask>
<g mask="url(#mask0)">
<rect x="0.112305" width="57.5506" height="57.5506" fill="#858C94"/>
</g>
</svg>
