<svg xmlns="http://www.w3.org/2000/svg" width="302" height="262" fill="none" viewBox="0 0 302 262">
    <path fill="#ED1C24" d="M40.237 202.029s29.315 37.121 79.413 38.629c50.098 1.509 94.9-29.742 131.861-54.059 36.961-24.316 49.09-65.056 30.635-98.658-18.455-33.602-51.941-22.09-92.13-45.702-40.188-23.613-47.392-35.996-94.044-33.878-46.653 2.119-85.21 51.941-83.512 107.756 1.698 55.814 27.777 85.912 27.777 85.912z"/>
    <path fill="#fff" d="M40.237 202.029s29.315 37.121 79.413 38.629c50.098 1.509 94.9-29.742 131.861-54.059 36.961-24.316 49.09-65.056 30.635-98.658-18.455-33.602-51.941-22.09-92.13-45.702-40.188-23.613-47.392-35.996-94.044-33.878-46.653 2.119-85.21 51.941-83.512 107.756 1.698 55.814 27.777 85.912 27.777 85.912z" opacity=".7"/>
    <path fill="#ED1C24" d="M49.348 18.343c-.043 0 .508-2.706.559-2.901.624-1.937 2.974-5.303 5.245-5.296.378.01.75.101 1.09.265.342.164.644.398.888.687.245.289.425.626.53.99.106.363.134.745.081 1.12-.166 1.595-1.603 2.96-2.901 3.743-1.524.95-5.492 1.392-5.492 1.392z"/>
    <path fill="#ED1C24" d="M44.944.15c2.176.769 3.206 4.73 3.134 6.76 0 .175-.407 2.902-.443 2.902h-.043c.167.624.348 1.299.53 2.039.319 1.364.667 2.901.935 4.614.311 1.833.515 3.684.61 5.542.115 2.081.045 4.17-.21 6.238-.004.024-.004.049 0 .073.282-.602 1.123-2.27 1.196-2.387 1.117-1.697 4.266-4.352 6.464-3.721.36.11.694.295.979.543.284.247.514.552.672.895.16.342.244.714.25 1.09.005.378-.07.752-.218 1.099-.58 1.494-2.322 2.43-3.78 2.844-1.647.471-5.317-.08-5.608-.13-.31 2.1-.76 4.176-1.349 6.216-.338 1.19-.706 2.377-1.102 3.562.254-.515.493-.972.53-1.03 1.116-1.705 4.272-4.353 6.463-3.722.36.11.694.295.979.543.285.248.514.553.672.895.16.342.244.714.25 1.091.005.378-.07.752-.218 1.099-.58 1.494-2.322 2.43-3.78 2.843-1.458.414-4.62 0-5.448-.109l-.457 1.364c-.725 2.177-1.516 4.353-2.176 6.486-.24.725-.45 1.508-.66 2.263.232-.457.428-.842.464-.9 1.11-1.697 4.266-4.352 6.456-3.721.36.111.694.297.978.544.284.248.513.553.672.895.16.341.245.713.252 1.09.007.376-.065.75-.211 1.098-.58 1.502-2.329 2.43-3.787 2.851-1.458.42-4.31.05-5.296-.087-.196.776-.384 1.552-.536 2.314-.095.53-.218 1.023-.283 1.552l-.218 1.56c-.102.994-.218 2.017-.29 2.989-.058.675-.102 1.32-.145 1.973.232-.725.725-2.227.725-2.343.803-1.596 2.002-2.96 3.482-3.96.079-.186.179-.361.298-.523.205-.317.475-.587.792-.793.317-.205.673-.341 1.047-.4.373-.058.754-.037 1.118.063.365.099.704.274.996.513 1.727 1.487 1.291 5.564.5 7.436-.043.109-.688 1.248-1.102 1.966.312-.385.602-.762.929-1.146.63-.777 1.284-1.531 1.98-2.344l1.066-1.153c.349-.392.77-.725 1.154-1.154.907-.877 1.872-1.726 2.865-2.56-.674-.551-3.054-2.554-3.736-3.917-.682-1.364-1.168-3.272-.457-4.716.157-.344.384-.652.666-.903.283-.25.616-.44.976-.553.36-.115.741-.152 1.117-.11.376.043.738.163 1.064.355 1.923 1.211 2.119 5.31 1.618 7.254 0 .123-.551 1.494-.849 2.242.602-.494 1.197-.987 1.821-1.451 1.8-1.386 3.664-2.742 5.513-4.099l1.69-1.248c-.239-.196-3.111-2.517-3.88-4.048-.675-1.356-1.168-3.271-.457-4.708.155-.345.382-.653.664-.905.283-.251.616-.44.976-.555.361-.114.742-.151 1.118-.108.376.043.739.164 1.065.357 1.93 1.204 2.118 5.303 1.617 7.254-.036.145-.783 2.118-.994 2.612 1.234-.921 2.46-1.85 3.628-2.822 1.589-1.296 3.091-2.694 4.497-4.186-.109-.094-3.12-2.503-3.903-4.062-.681-1.357-1.167-3.28-.457-4.716.156-.344.382-.651.664-.902.283-.25.614-.44.974-.554.36-.114.74-.151 1.115-.11.376.043.738.164 1.063.355 1.93 1.211 2.126 5.31 1.625 7.254 0 .13-.602 1.632-.885 2.343l.109.073c1.374-1.542 2.61-3.203 3.692-4.962.61-.965 1.132-1.915 1.625-2.851-.609-.392-3.358-2.212-4.222-3.54-.863-1.328-1.516-3.127-.972-4.636.117-.36.308-.69.561-.971.253-.281.563-.506.908-.659.346-.153.72-.232 1.098-.231.378 0 .752.081 1.097.236 2.053.994 2.691 5.079 2.408 7.059 0 .109-.29 1.204-.5 1.995.21-.428.442-.863.638-1.277.725-1.545 1.342-3.01 1.85-4.352.29-.726.53-1.415.725-2.053-.399-.726-1.951-3.511-2.103-5.078-.153-1.567.094-3.468 1.276-4.556.27-.265.591-.47.945-.603.354-.132.732-.189 1.109-.165.377.023.745.125 1.08.3.334.175.629.418.863.714 1.364 1.821.066 5.717-1.11 7.37-.101.146-1.951 2.177-1.973 2.177v-.043c-.203.616-.42 1.276-.682 1.987-.478 1.32-1.037 2.8-1.755 4.353-.76 1.698-1.614 3.353-2.561 4.954-1.056 1.797-2.27 3.497-3.627 5.079l-.05.058c.565-.349 2.175-1.277 2.313-1.335 1.872-.798 5.949-1.248 7.443.464.24.291.417.63.518.994.101.364.124.746.068 1.12-.056.373-.19.73-.394 1.049-.203.318-.471.59-.787.798-1.313.928-3.279.725-4.73.29-1.632-.522-4.352-3.003-4.599-3.206-1.417 1.58-2.939 3.064-4.555 4.44-.936.805-1.908 1.588-2.902 2.364.5-.29.95-.544 1.015-.573 1.865-.798 5.942-1.248 7.436.464.242.291.42.63.52.994.102.364.126.746.07 1.12-.056.374-.191.732-.395 1.05-.204.319-.473.59-.79.797-1.305.929-3.279.726-4.722.29-1.444-.435-3.86-2.539-4.483-3.097-.385.29-.726.587-1.14.885-1.82 1.393-3.627 2.778-5.404 4.2-.616.493-1.204 1.008-1.799 1.523l.885-.493c1.864-.798 5.941-1.255 7.436.457.24.292.417.632.518.996.101.365.124.747.068 1.12-.056.375-.19.733-.394 1.052-.203.32-.471.592-.787.8-1.306.929-3.279.726-4.723.283-1.443-.442-3.627-2.336-4.352-2.996-.588.544-1.183 1.088-1.727 1.64-.37.384-.725.725-1.088 1.139l-1.044 1.175c-.632.776-1.292 1.567-1.894 2.336-.42.53-.812 1.044-1.204 1.567.602-.508 1.82-1.451 1.93-1.538 1.719-1.074 5.687-2.177 7.42-.668.282.253.506.561.66.906.154.345.234.719.234 1.096 0 .378-.08.752-.234 1.097-.154.345-.378.653-.66.906-1.16 1.117-3.133 1.233-4.627 1-1.655-.26-4.643-2.175-5.013-2.451-.653.863-1.277 1.697-1.857 2.503-2.01 2.778-3.577 5.172-4.65 6.855l-.11.174-1.392-.675.218-.333c1.124-1.683 2.764-4.063 4.853-6.82.66-.877 1.378-1.799 2.125-2.734-.777-.85-1.503-1.743-2.176-2.677-1.603.631-4.926.653-5.36.653-.066 1.073-.124 2.125-.168 3.112-.145 3.424-.13 6.282-.094 8.284v.232l-1.53-.725c0-1.988.08-4.672.282-7.85.066-1.087.16-2.255.269-3.452-.428-.109-3.889-.994-5.195-2.039-1.182-.95-2.43-2.48-2.386-4.091-.003-.378.074-.752.225-1.098.151-.346.374-.657.653-.912.279-.254.609-.447.967-.566.359-.118.739-.16 1.115-.123 2.256.29 4.15 3.932 4.519 5.927 0 .123.116 1.45.16 2.249.05-.486.087-.965.145-1.451.094-.994.225-1.98.362-3.047.08-.515.167-1.03.247-1.552.08-.523.218-1.06.327-1.596.275-1.233.609-2.474.979-3.714-.87-.087-3.954-.45-5.274-1.212-1.32-.762-2.786-2.082-2.982-3.678-.06-.373-.041-.755.055-1.12.097-.366.27-.707.507-1.002.238-.294.535-.535.872-.707.337-.171.706-.27 1.084-.29 2.27-.05 4.693 3.257 5.36 5.18.044.116.37 1.545.537 2.335.225-.725.443-1.487.726-2.234.725-2.176 1.545-4.302 2.343-6.456.247-.66.479-1.32.725-1.98-.312 0-3.99-.385-5.47-1.234-1.312-.725-2.778-2.082-2.98-3.678-.06-.373-.04-.755.057-1.12.097-.365.27-.705.507-1 .237-.293.534-.534.87-.707.336-.172.705-.271 1.082-.292 2.278-.051 4.701 3.257 5.369 5.18.05.145.515 2.176.609 2.727.522-1.45 1.037-2.902 1.45-4.353.614-1.958 1.099-3.955 1.452-5.977-.145 0-3.983-.363-5.5-1.233-1.32-.726-2.785-2.082-2.98-3.678-.061-.373-.043-.755.054-1.12.097-.365.27-.706.508-1 .237-.293.534-.534.871-.705.337-.17.706-.269 1.084-.287 2.27-.058 4.693 3.25 5.36 5.172.044.123.407 1.69.56 2.445h.123c.3-2.044.416-4.11.348-6.174 0-1.139-.11-2.22-.218-3.271-.725 0-4.019 0-5.47-.632-1.45-.63-2.996-1.762-3.373-3.322-.1-.365-.123-.748-.066-1.123.058-.374.194-.732.4-1.05.205-.32.475-.59.793-.797.317-.207.675-.344 1.05-.403 2.255-.312 5.027 2.72 5.904 4.548.044.102.421 1.168.675 1.951-.05-.478-.102-.972-.167-1.45-.225-1.705-.544-3.25-.834-4.621-.174-.776-.341-1.451-.508-2.126-.725-.363-3.569-1.857-4.541-3.061-.972-1.204-1.843-2.953-1.45-4.505.086-.367.248-.711.477-1.01.228-.3.516-.549.847-.73.33-.181.694-.291 1.07-.323.375-.031.753.017 1.109.14z"/>
    <path fill="#ED1C24" d="M86.061 35.18c-1.777-.072-5.332-1.893-5.332-1.893s1.908-1.98 2.046-2.09c1.589-1.261 5.405-2.777 7.298-1.515.31.217.57.496.764.82.194.325.317.687.361 1.062.045.375.01.756-.103 1.116-.113.361-.3.694-.55.977-1.016 1.24-2.968 1.589-4.484 1.524z"/>
    <g fill="#fff" opacity=".5">
        <path d="M49.347 18.343c-.043 0 .508-2.706.559-2.901.624-1.937 2.974-5.303 5.245-5.296.378.01.75.101 1.09.265.342.164.644.398.889.687.244.289.425.626.53.99.105.363.133.745.08 1.12-.166 1.595-1.603 2.96-2.901 3.743-1.524.95-5.492 1.392-5.492 1.392z" opacity=".5"/>
        <path d="M44.944.15c2.176.769 3.206 4.73 3.134 6.76 0 .175-.407 2.902-.443 2.902h-.043c.167.624.348 1.299.53 2.039.319 1.364.667 2.901.935 4.614.311 1.833.515 3.684.61 5.542.115 2.081.045 4.17-.21 6.238-.004.024-.004.049 0 .073.282-.602 1.123-2.27 1.196-2.387 1.117-1.697 4.266-4.352 6.464-3.721.36.11.694.295.979.543.284.247.514.552.672.895.16.342.244.714.25 1.09.005.378-.07.752-.218 1.099-.58 1.494-2.322 2.43-3.78 2.844-1.647.471-5.317-.08-5.608-.13-.31 2.1-.76 4.176-1.349 6.216-.338 1.19-.706 2.377-1.102 3.562.254-.515.493-.972.53-1.03 1.116-1.705 4.272-4.353 6.463-3.722.36.11.694.295.979.543.285.248.514.553.672.895.16.342.244.714.25 1.091.005.378-.07.752-.218 1.099-.58 1.494-2.322 2.43-3.78 2.843-1.458.414-4.62 0-5.448-.109l-.457 1.364c-.725 2.177-1.516 4.353-2.176 6.486-.24.725-.45 1.508-.66 2.263.232-.457.428-.842.464-.9 1.11-1.697 4.266-4.352 6.456-3.721.36.111.694.297.978.544.284.248.513.553.672.895.16.341.245.713.252 1.09.007.376-.065.75-.211 1.098-.58 1.502-2.329 2.43-3.787 2.851-1.458.42-4.31.05-5.296-.087-.196.776-.384 1.552-.536 2.314-.095.53-.218 1.023-.283 1.552l-.218 1.56c-.102.994-.218 2.017-.29 2.989-.058.675-.102 1.32-.145 1.973.232-.725.725-2.227.725-2.343.803-1.596 2.002-2.96 3.482-3.96.079-.186.179-.361.298-.523.205-.317.475-.587.792-.793.317-.205.673-.341 1.047-.4.373-.058.754-.037 1.118.063.365.099.704.274.996.513 1.727 1.487 1.291 5.564.5 7.436-.043.109-.688 1.248-1.102 1.966.312-.385.602-.762.929-1.146.63-.777 1.284-1.531 1.98-2.344l1.066-1.153c.349-.392.77-.725 1.154-1.154.907-.877 1.872-1.726 2.865-2.56-.674-.551-3.054-2.554-3.736-3.917-.682-1.364-1.168-3.272-.457-4.716.157-.344.384-.652.666-.903.283-.25.616-.44.976-.553.36-.115.741-.152 1.117-.11.376.043.738.163 1.064.355 1.923 1.211 2.119 5.31 1.618 7.254 0 .123-.551 1.494-.849 2.242.602-.494 1.197-.987 1.821-1.451 1.8-1.386 3.664-2.742 5.513-4.099l1.69-1.248c-.239-.196-3.111-2.517-3.88-4.048-.675-1.356-1.168-3.271-.457-4.708.155-.345.382-.653.664-.905.283-.251.616-.44.976-.555.361-.114.742-.151 1.118-.108.376.043.739.164 1.065.357 1.93 1.204 2.118 5.303 1.617 7.254-.036.145-.783 2.118-.994 2.612 1.234-.921 2.46-1.85 3.628-2.822 1.589-1.296 3.091-2.694 4.497-4.186-.109-.094-3.12-2.503-3.903-4.062-.681-1.357-1.167-3.28-.457-4.716.156-.344.382-.651.664-.902.283-.25.614-.44.974-.554.36-.114.74-.151 1.115-.11.376.043.738.164 1.063.355 1.93 1.211 2.126 5.31 1.625 7.254 0 .13-.602 1.632-.885 2.343l.109.073c1.374-1.542 2.61-3.203 3.692-4.962.61-.965 1.132-1.915 1.625-2.851-.609-.392-3.358-2.212-4.222-3.54-.863-1.328-1.516-3.127-.972-4.636.117-.36.308-.69.561-.971.253-.281.563-.506.908-.659.346-.153.72-.232 1.098-.231.378 0 .752.081 1.097.236 2.053.994 2.691 5.079 2.408 7.059 0 .109-.29 1.204-.5 1.995.21-.428.442-.863.638-1.277.725-1.545 1.342-3.01 1.85-4.352.29-.726.53-1.415.725-2.053-.399-.726-1.951-3.511-2.103-5.078-.153-1.567.094-3.468 1.276-4.556.27-.265.591-.47.945-.603.354-.132.732-.189 1.109-.165.377.023.745.125 1.08.3.334.175.629.418.863.714 1.364 1.821.066 5.717-1.11 7.37-.101.146-1.951 2.177-1.973 2.177v-.043c-.203.616-.42 1.276-.682 1.987-.478 1.32-1.037 2.8-1.755 4.353-.76 1.698-1.614 3.353-2.561 4.954-1.056 1.797-2.27 3.497-3.627 5.079l-.05.058c.565-.349 2.175-1.277 2.313-1.335 1.872-.798 5.949-1.248 7.443.464.24.291.417.63.518.994.101.364.124.746.068 1.12-.056.373-.19.73-.394 1.049-.203.318-.471.59-.787.798-1.313.928-3.279.725-4.73.29-1.632-.522-4.352-3.003-4.599-3.206-1.417 1.58-2.939 3.064-4.555 4.44-.936.805-1.908 1.588-2.902 2.364.5-.29.95-.544 1.015-.573 1.865-.798 5.942-1.248 7.436.464.242.291.42.63.52.994.102.364.126.746.07 1.12-.056.374-.191.732-.395 1.05-.204.319-.473.59-.79.797-1.305.929-3.279.726-4.722.29-1.444-.435-3.86-2.539-4.483-3.097-.385.29-.726.587-1.14.885-1.82 1.393-3.627 2.778-5.404 4.2-.616.493-1.204 1.008-1.799 1.523l.885-.493c1.864-.798 5.941-1.255 7.436.457.24.292.417.632.518.996.101.365.124.747.068 1.12-.056.375-.19.733-.394 1.052-.203.32-.471.592-.787.8-1.306.929-3.279.726-4.723.283-1.443-.442-3.627-2.336-4.352-2.996-.588.544-1.183 1.088-1.727 1.64-.37.384-.725.725-1.088 1.139l-1.044 1.175c-.632.776-1.292 1.567-1.894 2.336-.42.53-.812 1.044-1.204 1.567.602-.508 1.82-1.451 1.93-1.538 1.719-1.074 5.687-2.177 7.42-.668.282.253.506.561.66.906.154.345.234.719.234 1.096 0 .378-.08.752-.234 1.097-.154.345-.378.653-.66.906-1.16 1.117-3.133 1.233-4.627 1-1.655-.26-4.643-2.175-5.013-2.451-.653.863-1.277 1.697-1.857 2.503-2.01 2.778-3.577 5.172-4.65 6.855l-.11.174-1.392-.675.218-.333c1.124-1.683 2.764-4.063 4.853-6.82.66-.877 1.378-1.799 2.125-2.734-.777-.85-1.503-1.743-2.176-2.677-1.603.631-4.926.653-5.36.653-.066 1.073-.124 2.125-.168 3.112-.145 3.424-.13 6.282-.094 8.284v.232l-1.53-.725c0-1.988.08-4.672.282-7.85.066-1.087.16-2.255.269-3.452-.428-.109-3.889-.994-5.195-2.039-1.182-.95-2.43-2.48-2.386-4.091-.003-.378.074-.752.225-1.098.151-.346.374-.657.653-.912.279-.254.609-.447.967-.566.359-.118.739-.16 1.115-.123 2.256.29 4.15 3.932 4.519 5.927 0 .123.116 1.45.16 2.249.05-.486.087-.965.145-1.451.094-.994.225-1.98.362-3.047.08-.515.167-1.03.247-1.552.08-.523.218-1.06.327-1.596.275-1.233.609-2.474.979-3.714-.87-.087-3.954-.45-5.274-1.212-1.32-.762-2.786-2.082-2.982-3.678-.06-.373-.041-.755.055-1.12.097-.366.27-.707.507-1.002.238-.294.535-.535.872-.707.337-.171.706-.27 1.084-.29 2.27-.05 4.693 3.257 5.36 5.18.044.116.37 1.545.537 2.335.225-.725.443-1.487.726-2.234.725-2.176 1.545-4.302 2.343-6.456.247-.66.479-1.32.725-1.98-.312 0-3.99-.385-5.47-1.234-1.312-.725-2.778-2.082-2.98-3.678-.06-.373-.04-.755.057-1.12.097-.365.27-.705.507-1 .237-.293.534-.534.87-.707.336-.172.705-.271 1.082-.292 2.278-.051 4.701 3.257 5.369 5.18.05.145.515 2.176.609 2.727.522-1.45 1.037-2.902 1.45-4.353.614-1.958 1.099-3.955 1.452-5.977-.145 0-3.983-.363-5.5-1.233-1.32-.726-2.785-2.082-2.98-3.678-.061-.373-.043-.755.054-1.12.097-.365.27-.706.508-1 .237-.293.534-.534.871-.705.337-.17.706-.269 1.084-.287 2.27-.058 4.693 3.25 5.36 5.172.044.123.407 1.69.56 2.445h.123c.3-2.044.416-4.11.348-6.174 0-1.139-.11-2.22-.218-3.271-.725 0-4.019 0-5.47-.632-1.45-.63-2.996-1.762-3.373-3.322-.1-.365-.123-.748-.066-1.123.058-.374.194-.732.4-1.05.205-.32.475-.59.793-.797.317-.207.675-.344 1.05-.403 2.255-.312 5.027 2.72 5.904 4.548.044.102.421 1.168.675 1.951-.05-.478-.102-.972-.167-1.45-.225-1.705-.544-3.25-.834-4.621-.174-.776-.341-1.451-.508-2.126-.725-.363-3.569-1.857-4.541-3.061-.972-1.204-1.843-2.953-1.45-4.505.086-.367.248-.711.477-1.01.228-.3.516-.549.847-.73.33-.181.694-.291 1.07-.323.375-.031.753.017 1.109.14z" opacity=".5"/>
        <path d="M86.061 35.18c-1.777-.072-5.332-1.893-5.332-1.893s1.908-1.98 2.046-2.09c1.589-1.261 5.405-2.777 7.298-1.515.31.217.57.496.764.82.194.325.317.687.361 1.062.045.375.01.756-.103 1.116-.113.361-.3.694-.55.977-1.016 1.24-2.968 1.589-4.484 1.524z" opacity=".5"/>
    </g>
    <path fill="#ED1C24" d="M65.307 79.693s-10.787-26-16.823-24.868c-6.035 1.132 10.352 41.451 10.352 41.451s-18.977-35.8-31.919-35.8c-12.941 0 4.745 39.565 21.176 52.754 0 0-25.884-27.886-40.98-21.858C-7.983 97.401 37.27 125.65 37.27 125.65s-26.311-8.277-23.271-1.864c3.039 6.412 11.215 7.53 11.215 7.53l6.92 1.508h37.723l5.803-2.256s24.157-12.064 17.686-16.96c-6.47-4.897-20.704 5.651-20.704 5.651s24.585-27.131 19.84-37.302c-4.744-10.17-25.883 18.462-25.883 18.462s17.258-36.554 13.784-42.96c-3.475-6.405-15.075 22.235-15.075 22.235z"/>
    <path fill="#fff" d="M65.307 79.693s-10.787-26-16.823-24.868c-6.035 1.132 10.352 41.451 10.352 41.451s-18.977-35.8-31.919-35.8c-12.941 0 4.745 39.565 21.176 52.754 0 0-25.884-27.886-40.98-21.858C-7.983 97.401 37.27 125.65 37.27 125.65s-26.311-8.277-23.271-1.864c3.039 6.412 11.215 7.53 11.215 7.53l11.273 1.508h30.468l8.705-2.256s24.157-12.064 17.686-16.96c-6.47-4.897-20.704 5.651-20.704 5.651s24.585-27.131 19.84-37.302c-4.744-10.17-25.883 18.462-25.883 18.462s17.258-36.554 13.784-42.96c-3.475-6.405-15.075 22.235-15.075 22.235z" opacity=".4"/>
    <path stroke="#263238" stroke-linecap="round" stroke-linejoin="round" d="M68.76 81.064c-9.489 28.038-9.489 47.878-9.489 47.878s11.216.436 22.859-8.197M64.053 96.16c-1.958-8.381-4.556-16.6-7.77-24.585"/>
    <path stroke="#263238" stroke-linecap="round" stroke-linejoin="round" d="M35.977 79.765l24.15 35.808s16.395-13.784 22.002-21.567M59.7 124.198S34.25 112.12 23.9 105.221"/>
    <path fill="#C2C2C2" stroke="#ABABAB" stroke-linecap="round" stroke-linejoin="round" d="M136.313 21.644h-5.245v218.565h5.245V21.644zM41.964 21.644h-5.245v218.565h5.245V21.644zM89.138 21.644h-5.244v218.565h5.244V21.644zM183.48 21.644h-5.245v218.565h5.245V21.644z"/>
    <path fill="#C2C2C2" stroke="#ABABAB" stroke-linecap="round" stroke-linejoin="round" d="M181.906 28.456H35.028v9.96h146.878v-9.96z"/>
    <path fill="#A6A6A6" stroke="#ABABAB" stroke-linecap="round" stroke-linejoin="round" d="M181.906 28.456H87.383v9.96h94.523v-9.96z"/>
    <path fill="#C2C2C2" stroke="#ABABAB" stroke-linecap="round" stroke-linejoin="round" d="M181.906 128.746H35.028v9.961h146.878v-9.961z"/>
    <path fill="#A6A6A6" stroke="#ABABAB" stroke-linecap="round" stroke-linejoin="round" d="M181.906 128.746H87.383v9.961h94.523v-9.961z"/>
    <path fill="#C2C2C2" stroke="#ABABAB" stroke-linecap="round" stroke-linejoin="round" d="M181.906 229.03H35.028v9.96h146.878v-9.96z"/>
    <path fill="#A6A6A6" stroke="#ABABAB" stroke-linecap="round" stroke-linejoin="round" d="M181.906 229.03H87.383v9.96h94.523v-9.96z"/>
    <path fill="#ED1C24" d="M87.404 175.558H10.537v64.571h76.867v-64.571z"/>
    <path fill="#fff" stroke="#696969" stroke-linecap="round" stroke-linejoin="round" d="M87.404 175.558H10.537v64.571h76.867v-64.571z" opacity=".6"/>
    <path stroke="#696969" stroke-linecap="round" stroke-linejoin="round" d="M87.404 175.558H10.537v64.571h76.867v-64.571z"/>
    <path fill="#ED1C24" d="M87.404 175.558H61.86v64.571h25.543v-64.571z"/>
    <path fill="#fff" stroke="#696969" stroke-linecap="round" stroke-linejoin="round" d="M87.404 175.558H61.86v64.571h25.543v-64.571z" opacity=".39"/>
    <path stroke="#696969" stroke-linecap="round" stroke-linejoin="round" d="M87.404 175.558H61.86v64.571h25.543v-64.571zM74.897 175.733v64.476"/>
    <path fill="#ED1C24" d="M91.284 111.089H14.418v64.571h76.867v-64.571z"/>
    <path fill="#fff" stroke="#696969" stroke-linecap="round" stroke-linejoin="round" d="M91.284 111.089H14.418v64.571h76.867v-64.571z" opacity=".6"/>
    <path stroke="#696969" stroke-linecap="round" stroke-linejoin="round" d="M91.284 111.089H14.418v64.571h76.867v-64.571z"/>
    <path fill="#ED1C24" d="M91.285 111.089H65.742v64.571h25.543v-64.571z"/>
    <path fill="#fff" stroke="#696969" stroke-linecap="round" stroke-linejoin="round" d="M91.285 111.089H65.742v64.571h25.543v-64.571z" opacity=".39"/>
    <path stroke="#696969" stroke-linecap="round" stroke-linejoin="round" d="M91.285 111.089H65.742v64.571h25.543v-64.571zM78.778 111.264v64.476"/>
    <path fill="#ED1C24" d="M291.315 175.558h-76.867v64.571h76.867v-64.571z"/>
    <path fill="#fff" stroke="#919191" stroke-linecap="round" stroke-linejoin="round" d="M291.315 175.558h-76.867v64.571h76.867v-64.571z" opacity=".6"/>
    <path stroke="#919191" stroke-linecap="round" stroke-linejoin="round" d="M291.315 175.558h-76.867v64.571h76.867v-64.571z"/>
    <path fill="#ED1C24" d="M291.315 175.558h-25.543v64.571h25.543v-64.571z"/>
    <path fill="#fff" stroke="#919191" stroke-linecap="round" stroke-linejoin="round" d="M291.315 175.558h-25.543v64.571h25.543v-64.571z" opacity=".39"/>
    <path stroke="#919191" stroke-linecap="round" stroke-linejoin="round" d="M291.315 175.558h-25.543v64.571h25.543v-64.571zM278.809 175.733v64.476"/>
    <path fill="#ED1C24" d="M291.315 110.923h-76.867v64.57h76.867v-64.57z"/>
    <path fill="#fff" stroke="#919191" stroke-linecap="round" stroke-linejoin="round" d="M291.315 110.923h-76.867v64.57h76.867v-64.57z" opacity=".6"/>
    <path stroke="#919191" stroke-linecap="round" stroke-linejoin="round" d="M291.315 110.923h-76.867v64.57h76.867v-64.57z"/>
    <path fill="#ED1C24" d="M291.315 110.923h-25.543v64.57h25.543v-64.57z"/>
    <path fill="#fff" stroke="#919191" stroke-linecap="round" stroke-linejoin="round" d="M291.315 110.923h-25.543v64.57h25.543v-64.57z" opacity=".39"/>
    <path stroke="#919191" stroke-linecap="round" stroke-linejoin="round" d="M291.315 110.923h-25.543v64.57h25.543v-64.57zM278.809 111.097v64.476"/>
    <path fill="#ED1C24" d="M284.56 57.459h-63.583v53.413h63.583V57.459z"/>
    <path fill="#fff" stroke="#919191" stroke-linecap="round" stroke-linejoin="round" d="M284.56 57.459h-63.583v53.413h63.583V57.459z" opacity=".6"/>
    <path stroke="#919191" stroke-linecap="round" stroke-linejoin="round" d="M284.56 57.459h-63.583v53.413h63.583V57.459z"/>
    <path fill="#ED1C24" d="M284.561 57.459h-21.124v53.413h21.124V57.459z"/>
    <path fill="#fff" stroke="#919191" stroke-linecap="round" stroke-linejoin="round" d="M284.561 57.459h-21.124v53.413h21.124V57.459z" opacity=".39"/>
    <path stroke="#919191" stroke-linecap="round" stroke-linejoin="round" d="M284.561 57.459h-21.124v53.413h21.124V57.459zM274.216 57.603v53.334"/>
    <path fill="#fff" stroke="#263238" stroke-linecap="round" stroke-linejoin="round" d="M276.429 215.856h-9.96v6.232h9.96v-6.232z"/>
    <path fill="#263238" stroke="#263238" stroke-linecap="round" stroke-linejoin="round" d="M182.704 240.209c3.325 0 6.021-2.696 6.021-6.021 0-3.326-2.696-6.021-6.021-6.021-3.326 0-6.021 2.695-6.021 6.021 0 3.325 2.695 6.021 6.021 6.021zM281.783 134.528h-3.554v99.797h3.554v-99.797z"/>
    <path fill="#263238" d="M279.89 169.436l-8.408-6.689c-3.576-2.849-6.259-6.666-7.729-10.996-1.469-4.33-1.665-8.991-.563-13.429.324-1.295 1.071-2.446 2.122-3.269 1.051-.824 2.346-1.274 3.682-1.279h21.763c1.335.002 2.632.451 3.684 1.276 1.051.824 1.797 1.976 2.119 3.272 1.104 4.437.91 9.098-.559 13.428-1.468 4.33-4.15 8.147-7.725 10.997l-8.386 6.689zm-10.882-32.26c-.581-.002-1.146.191-1.604.549-.458.358-.782.86-.92 1.424-.948 3.803-.783 7.799.476 11.511 1.26 3.712 3.559 6.983 6.626 9.425l6.289 5.005 6.297-5.005c3.067-2.441 5.369-5.712 6.63-9.424 1.262-3.711 1.431-7.707.486-11.512-.139-.564-.464-1.064-.921-1.422-.458-.358-1.022-.552-1.603-.551h-21.756z"/>
    <path fill="#fff" d="M259.019 218.975h-110.07v12.811h110.07v-12.811z"/>
    <path fill="#000" stroke="#263238" stroke-linecap="round" stroke-linejoin="round" d="M259.019 218.975h-110.07v12.811h110.07v-12.811z" opacity=".28"/>
    <path stroke="#263238" stroke-linecap="round" stroke-linejoin="round" d="M259.019 218.975h-110.07v12.811h110.07v-12.811z"/>
    <path stroke="#263238" stroke-linecap="round" stroke-linejoin="round" d="M161.282 218.975h-12.333v12.811h12.333v-12.811zM259.011 218.975h-12.332v12.811h12.332v-12.811zM210.147 218.975h-12.333v12.811h12.333v-12.811z"/>
    <path fill="#fff" stroke="#263238" stroke-linecap="round" stroke-linejoin="round" d="M259.019 231.786h7.588l9.488-36.061h-7.588l-9.488 36.061zM284.989 210.909h-9.96v16.133h9.96v-16.133z"/>
    <path fill="#263238" d="M277.568 240.209c-.565-.01-1.104-.238-1.503-.637-.399-.4-.628-.939-.637-1.503v-8.031c.009-.564.238-1.103.637-1.503.399-.399.938-.627 1.503-.637.564.01 1.103.238 1.503.637.399.4.627.939.637 1.503v8.052c-.015.561-.246 1.095-.645 1.489-.399.395-.934.621-1.495.63zM282.654 240.209c-.565-.01-1.104-.238-1.503-.637-.4-.4-.628-.939-.637-1.503v-8.031c.009-.564.237-1.103.637-1.503.399-.399.938-.627 1.503-.637.571 0 1.119.224 1.526.625.407.4.64.944.65 1.515v8.052c-.015.568-.251 1.106-.658 1.502-.406.396-.951.617-1.518.617z"/>
    <path stroke="#263238" stroke-linecap="round" stroke-linejoin="round" d="M.81 240.209H301"/>
    <path fill="#ED1C24" d="M104.379 261.166c28.942 0 52.405-2.851 52.405-6.369s-23.463-6.369-52.405-6.369c-28.943 0-52.405 2.851-52.405 6.369s23.462 6.369 52.405 6.369z"/>
    <path fill="#fff" d="M104.379 261.166c28.942 0 52.405-2.851 52.405-6.369s-23.463-6.369-52.405-6.369c-28.943 0-52.405 2.851-52.405 6.369s23.462 6.369 52.405 6.369z" opacity=".5"/>
    <path fill="#ED1C24" d="M212.823 254.775c0 1.756-11.701 3.178-26.116 3.178-14.414 0-26.115-1.451-26.115-3.178 0-1.726 11.694-3.17 26.115-3.17 14.422 0 26.116 1.444 26.116 3.17z"/>
    <path fill="#fff" d="M212.823 254.775c0 1.756-11.701 3.178-26.116 3.178-14.414 0-26.115-1.451-26.115-3.178 0-1.726 11.694-3.17 26.115-3.17 14.422 0 26.116 1.444 26.116 3.17z" opacity=".5"/>
    <path fill="#263238" stroke="#263238" stroke-linecap="round" stroke-linejoin="round" d="M114.833 44.974s-4.056-3.185-8.706-1.596c-4.65 1.589-8.175 9.336-9.43 15.633-1.255 6.297-6.08 11.07-4.919 18.455 1.161 7.385 9.554 8.538 19.689 9.626 10.134 1.088 15.633-.145 20.406-6.804 4.773-6.66 2.749-14.763-.073-21.93s-7.522-13.82-11.432-15.053c-3.911-1.233-5.535 1.669-5.535 1.669z"/>
    <path stroke="#fff" stroke-linecap="round" stroke-linejoin="round" d="M98.074 82.849c.684.307 1.396.55 2.126.725M113.816 50.132c-1.652 3.692-3.747 7.17-6.238 10.359-4.15 5.332-13.326 10.366-13.914 15.96-.094.748-.029 1.509.192 2.23.222.722.594 1.388 1.092 1.955M130.654 76.878c-.3.702-.685 1.365-1.146 1.974M127.164 62.863s4.665 5.383 4.215 11.128M112.931 47.165c-1.818-.185-3.654.068-5.354.738-1.7.67-3.215 1.738-4.417 3.114-.167.188-.32.377-.465.566"/>
    <path fill="#fff" stroke="#263238" stroke-linecap="round" stroke-linejoin="round" d="M86.17 183.901l-.906 13.957s-3.86 18.723-5.078 26.442c-1.219 7.719-3.453 19.456-3.86 19.456-.406 0-7.065 4.026-9.198 7.312-2.132 3.287.573 4.679 3.533 3.627 2.96-1.051 6.979-4.026 8.292-7.559 1.313-3.532 1.966-4.845 2.053-5.418.087-.574 14.124-38.26 15.517-42.286 1.392-4.026 4.352-15.85 4.352-15.85l6.899-23.403s7.385 24.063 7.472 25.129c.087 1.067 7.631 62.568 7.98 64.868.348 2.3.246 3.939 1.639 4.432 1.393.494 4.679.494 6.406.494 1.726 0 7.718.906 10.671.167 2.952-.74 3.286-1.234 1.233-2.714-2.053-1.479-13.457-2.422-14.509-6.732-.087-.326-.166-63.634-.166-63.634s-.987-20.936-2.626-26.841h-37.94l-1.763 28.553z"/>
    <path fill="#263238" stroke="#263238" stroke-linecap="round" stroke-linejoin="round" d="M70.654 254.681c2.952-1.074 6.978-4.026 8.291-7.559l.276-.725c-1.676 1.784-4.353 4.265-4.353 4.265-.164-.841-.53-1.631-1.066-2.299-.234-.259-.534-.448-.867-.549-.334-.101-.688-.11-1.026-.025l2.901-3.191c-2.176 1.349-6.093 4.105-7.631 6.478-2.198 3.271.5 4.671 3.475 3.605zM143.124 252.541c-1.407-1.008-7.189-1.77-11.048-3.533-.16.136-.284.307-.363.501-.245.695-.437 1.408-.573 2.132l-7.98-1.704v.225c.327 2.299.247 3.939 1.64 4.432 1.392.493 4.679.493 6.405.493 1.727 0 7.719.907 10.671.167 2.953-.74 3.33-1.204 1.248-2.713zM97.226 121.296s-3.765 1.734-8.32 9.917c-4.984 8.93-4.128 13.892-4.2 24.665-.073 10.772-.291 28.654-.291 28.654s13.783 3.692 23.671 3.112c9.887-.58 22.43-2.822 22.43-2.822s-2.677-36.474-5.209-46.964c-2.531-10.49-4.055-15.234-4.055-15.234-4.893.679-9.851.752-14.762.217-8.393-.819-9.264-1.545-9.264-1.545z"/>
    <path stroke="#fff" stroke-linecap="round" stroke-linejoin="round" d="M113.084 153.556c.377 1.241.725 2.496 1.03 3.751M104.343 133.026c2.922 5.393 5.43 11 7.501 16.772"/>
    <path fill="#fff" stroke="#263238" stroke-linecap="round" stroke-linejoin="round" d="M189.639 114.361c-.436-.29-7.567-1.407-7.567-1.407l-1.392-.573s8.632.689 8.705.326c.072-.363.362-.798-.218-.87-.58-.073-11.687-2.329-11.687-2.329s2.822-2.67 3.185-3.25c.363-.58.863-1.741.283-1.741-.58 0-.725.363-1.516.871-.791.507-3.91 1.741-4.781 2.459-.87.718-3.467 2.604-3.467 2.604l-30.164-4.149s-10.591-13.058-12.891-15.844c-1.598-1.859-3.418-3.515-5.418-4.933-2.22-.979-2.177.66-2.177.66l4.636 20.603s11.991 7.145 12.731 7.145c.74 0 33.138 1.074 33.138 1.074s2.176 1.015 3.54 1.879c1.364.863 10.061 3.627 10.061 3.627s.581-.29-.072-.798c-.653-.508-4.846-2.532-4.846-2.532l8.705 1.886s.508-.363.29-.725c-.217-.363-7.979-3.33-7.979-3.33l8.705.435s.624-.798.196-1.088z"/>
    <path fill="#fff" stroke="#263238" stroke-linecap="round" stroke-linejoin="round" d="M139.2 104.06c-3.127-3.852-9.373-11.541-11.071-13.602-1.598-1.859-3.418-3.515-5.418-4.933-2.22-.979-2.177.66-2.177.66l4.636 20.603s5.411 3.221 9.184 5.339l4.846-8.067z"/>
    <path fill="#fff" stroke="#263238" stroke-linecap="round" stroke-linejoin="round" d="M107.143 83.763s-6.297.29-10.156 4.563c-3.86 4.272-3.402 13.674-1.806 19.318 1.595 5.644 3.627 8.756 3.184 10.714-.442 1.959-2.024 2.605-1.16 4.411.863 1.806 5.861 3.765 14.689 3.475 8.829-.29 10.497-2.177 10.57-3.831.072-1.654-.58-3.039-.363-4.055.218-1.015 6.587-6.659 6.587-12.883 0-6.224-2.749-8.393-3.402-12.884-.653-4.49-.435-5.136-3.112-7.095-2.677-1.958-11.484-2.967-15.031-1.733z"/>
    <path stroke="#263238" stroke-linecap="round" stroke-linejoin="round" d="M104.284 105.337c-2.104 1.761-4.44 3.225-6.942 4.352M104.98 106.062s-1.559 5.035-5.382 7.813"/>
    <path fill="#fff" stroke="#263238" stroke-linecap="round" stroke-linejoin="round" d="M120.607 88.318l.725 6.95-3.047-3.547 2.322-3.403z"/>
    <path fill="#fff" stroke="#263238" stroke-linecap="round" stroke-linejoin="round" d="M116.552 95.848l4.055-7.53-3.693-3.975-.362 11.505z"/>
    <path fill="#fff" stroke="#263238" stroke-linecap="round" stroke-linejoin="round" d="M108.738 71.46c.633 2.508.947 5.087.936 7.674-.021 1.676-.191 3.346-.508 4.991l7.385 11.723 2.097-10.881 1.378-7.53s-8.393-.479-11.288-5.978z"/>
    <path fill="#fff" stroke="#263238" stroke-linecap="round" stroke-linejoin="round" d="M116.117 89.552l.435 6.296-2.169-3.402 1.734-2.894z"/>
    <path fill="#fff" stroke="#263238" stroke-linecap="round" stroke-linejoin="round" d="M106.707 83.835l6.732 12.086 2.677-6.37-7.16-9.844-2.249 4.128z"/>
    <path fill="#ED1C24" d="M224.648 89.472H163.56v50.127h61.088V89.472z"/>
    <path fill="#000" d="M224.648 89.472H163.56v50.127h61.088V89.472z" opacity=".2"/>
    <path stroke="#263238" stroke-linecap="round" stroke-linejoin="round" d="M224.648 89.472H163.56v50.127h61.088V89.472z"/>
    <path fill="#ED1C24" stroke="#263238" stroke-linecap="round" stroke-linejoin="round" d="M211.713 89.472h-61.088v50.127h61.088V89.472z"/>
    <path fill="#ED1C24" d="M234.71 156.472c-1.959-3.104-10.062-16.873-10.062-16.873h-12.927l6.652 16.873h16.337z"/>
    <path fill="#000" d="M234.71 156.472c-1.959-3.104-10.062-16.873-10.062-16.873h-12.927l6.652 16.873h16.337z" opacity=".2"/>
    <path stroke="#263238" stroke-linecap="round" stroke-linejoin="round" d="M234.71 156.472c-1.959-3.104-10.062-16.873-10.062-16.873h-12.927l6.652 16.873h16.337z"/>
    <path fill="#ED1C24" stroke="#263238" stroke-linecap="round" stroke-linejoin="round" d="M140.526 156.472c1.959-3.104 10.055-16.873 10.055-16.873h12.934l-6.652 16.873h-16.337z"/>
    <path fill="#ED1C24" stroke="#263238" stroke-linecap="round" stroke-linejoin="round" d="M150.581 139.599l-5.622 16.873h63.802l2.959-16.873h-61.139z"/>
    <path stroke="#263238" stroke-linecap="round" stroke-linejoin="round" d="M232.512 107.607v16.787M235.688 114.869v13.609M144.06 124.394v10.432M141.339 130.292v8.161"/>
    <path fill="#fff" d="M96.645 101.782c2.165 2.452 4.678 4.574 7.458 6.297 4.353 2.604 20.312 11.65 21.567 12.158 1.255.508 39.369-5.716 39.369-5.716s2.176 1.015 3.547 1.879c1.371.863 10.062 3.627 10.062 3.627s.58-.29-.072-.791c-.653-.5-4.846-2.539-4.846-2.539l8.705 1.886s.508-.363.29-.725c-.218-.363-7.98-3.33-7.98-3.33l8.705.435s.653-.798.218-1.088c-.435-.29-9.351-2.321-9.351-2.321s9.482-.798 9.554-1.161c.073-.363.363-.791-.217-.863-.581-.073-12.449-1.233-12.449-1.233s3.112-1.952 3.475-2.532c.363-.581.87-1.741.29-1.741-.58 0-.725.363-1.516.87-.791.508-3.91 1.741-4.781 2.46-.87.718-3.474 2.611-3.474 2.611l-34.879.073-21.654-17.084"/>
    <path stroke="#263238" stroke-linecap="round" stroke-linejoin="round" d="M96.645 101.782c2.165 2.452 4.678 4.574 7.458 6.297 4.353 2.604 20.312 11.65 21.567 12.158 1.255.508 39.369-5.716 39.369-5.716s2.176 1.015 3.547 1.879c1.371.863 10.062 3.627 10.062 3.627s.58-.29-.072-.791c-.653-.5-4.846-2.539-4.846-2.539l8.705 1.886s.508-.363.29-.725c-.218-.363-7.98-3.33-7.98-3.33l8.705.435s.653-.798.218-1.088c-.435-.29-9.351-2.321-9.351-2.321s9.482-.798 9.554-1.161c.073-.363.363-.791-.217-.863-.581-.073-12.449-1.233-12.449-1.233s3.112-1.952 3.475-2.532c.363-.581.87-1.741.29-1.741-.58 0-.725.363-1.516.87-.791.508-3.91 1.741-4.781 2.46-.87.718-3.474 2.611-3.474 2.611l-34.879.073-21.654-17.084"/>
    <path fill="#fff" stroke="#263238" stroke-linecap="round" stroke-linejoin="round" d="M183.639 109.53c-.573-.073-12.449-1.233-12.449-1.233s3.112-1.952 3.475-2.532c.363-.581.871-1.741.29-1.741-.58 0-.725.363-1.516.87-.791.508-3.91 1.741-4.781 2.46-.87.718-3.474 2.611-3.474 2.611l-34.879.073-3.867-3.069c-1.45 2.546-4.163 7.32-5.926 10.468 2.713 1.509 4.766 2.633 5.179 2.8 1.234.508 39.369-5.716 39.369-5.716s2.177 1.015 3.548 1.879c1.371.863 10.061 3.627 10.061 3.627s.581-.29-.072-.791c-.653-.5-4.846-2.539-4.846-2.539l8.705 1.886s.508-.363.29-.725c-.217-.363-7.979-3.33-7.979-3.33l8.705.435s.653-.798.217-1.088c-.435-.29-9.372-2.321-9.372-2.321s9.481-.798 9.554-1.161c.072-.363.348-.791-.232-.863zM125.235 65.38c.123-.15.287-.262.471-.324s.383-.07.572-.025c.189.045.361.143.497.282.137.138.231.313.273.502.122.787.081 1.59-.118 2.362-.2.77-.555 1.492-1.042 2.122-.798.798-1.524 1.015-1.524 0 .202-1.654.492-3.296.871-4.919v0z"/>
    <path fill="#fff" stroke="#263238" stroke-linecap="round" stroke-linejoin="round" d="M116.327 52.7c-.255 3.53-1.765 6.853-4.259 9.365-2.322 2.284-4.949 4.237-7.805 5.803 0 0 .42 2.271 1.276 2.982.856.71 2.554.573 2.554.573.987 2.698 2.592 5.128 4.686 7.095 3.403 3.12 7.378 2.836 9.648-1.843 2.271-4.679 3.41-9.372 3.127-12.071l-.283-2.699s-7.385-4.098-8.944-9.205z"/>
    <path fill="#263238" d="M115.898 66.73c.361 0 .653-.52.653-1.161s-.292-1.16-.653-1.16c-.361 0-.653.519-.653 1.16 0 .64.292 1.16.653 1.16zM119.446 75.993c.36 0 .653-.52.653-1.16 0-.641-.293-1.161-.653-1.161-.361 0-.653.52-.653 1.16 0 .642.292 1.161.653 1.161zM122.195 66.73c.36 0 .653-.52.653-1.161s-.293-1.16-.653-1.16c-.361 0-.653.519-.653 1.16 0 .64.292 1.16.653 1.16z"/>
    <path stroke="#263238" stroke-linecap="round" stroke-linejoin="round" d="M120.889 64.336c-.249.869-.323 1.779-.217 2.676.217 1.234 1.233 3.33.362 3.693-.397.181-.836.25-1.27.199-.433-.051-.845-.22-1.189-.49M114.013 63.472s.348-2.22 3.257-1.966M121.804 62.188s2.713-2.176 3.591 1.807"/>
</svg>
