<svg xmlns="http://www.w3.org/2000/svg" width="212" height="73" fill="none" viewBox="0 0 212 73">
    <path fill="url(#paint0_linear)" d="M31.36 35.82l23.006-13.015v27.01L31.359 62.903V35.82z"/>
    <path fill="url(#paint1_linear)" d="M31.36 35.82l23.006-13.015v27.01L31.359 62.903V35.82z"/>
    <path fill="url(#paint2_linear)" d="M8.426 22.732l22.97-13.124 23.007 13.124-23.007 13.124-22.97-13.124z"/>
    <path fill="url(#paint3_linear)" d="M31.36 72.51L0 54.783V17.874L31.396 0l31.359 17.91-.073 36.872L31.359 72.51zM3.992 52.499l27.366 15.48 27.366-15.48.073-32.304L31.396 4.532 3.993 20.122v32.376z"/>
    <path fill="url(#paint4_linear)" d="M8.39 22.696L31.36 35.82v26.974L8.39 49.814V22.697z"/>
    <path fill="#000" d="M106.916 50.474H99.91l-2.03-6.628H87.73l-2.01 6.628h-6.965l10.389-29.798h7.622l10.15 29.798zM96.408 38.692l-3.065-10.016c-.226-.748-.385-1.642-.478-2.68h-.159c-.066.872-.232 1.738-.498 2.597l-3.104 10.099h7.304zM109.165 49.331v-6.65c1.154 1.012 2.408 1.774 3.761 2.287 1.353.498 2.72.748 4.1.748.809 0 1.512-.077 2.109-.229.611-.152 1.115-.36 1.513-.623.411-.277.716-.596.915-.956.199-.374.299-.776.299-1.205 0-.582-.159-1.102-.478-1.559-.318-.457-.756-.88-1.313-1.267-.544-.388-1.194-.763-1.951-1.123-.756-.36-1.572-.727-2.447-1.101-2.229-.97-3.895-2.154-4.996-3.553-1.088-1.4-1.632-3.09-1.632-5.07 0-1.552.299-2.882.896-3.99.597-1.123 1.406-2.044 2.428-2.764 1.035-.72 2.229-1.247 3.582-1.58 1.353-.346 2.786-.52 4.299-.52 1.486 0 2.799.098 3.94.292 1.155.18 2.216.464 3.185.852v6.213c-.478-.346-1.002-.651-1.573-.914-.557-.264-1.134-.478-1.731-.645-.597-.18-1.194-.311-1.791-.394-.584-.083-1.141-.125-1.672-.125-.73 0-1.393.076-1.99.229-.597.138-1.101.339-1.513.602-.411.263-.729.582-.955.956-.225.36-.338.769-.338 1.226 0 .499.126.95.378 1.35.252.389.61.763 1.075 1.123.464.346 1.028.693 1.691 1.039.664.332 1.413.679 2.249 1.039 1.141.499 2.163 1.032 3.065 1.6.916.554 1.698 1.185 2.348 1.891.651.707 1.148 1.517 1.493 2.431.345.9.518 1.954.518 3.159 0 1.662-.306 3.062-.916 4.198-.597 1.122-1.413 2.036-2.448 2.742-1.035.693-2.242 1.192-3.622 1.497-1.367.305-2.813.457-4.339.457-1.565 0-3.058-.139-4.477-.416-1.407-.277-2.627-.692-3.662-1.247zM132.012 49.331v-6.65c1.154 1.012 2.408 1.774 3.761 2.287 1.354.498 2.72.748 4.1.748.809 0 1.513-.077 2.11-.229.61-.152 1.114-.36 1.512-.623.411-.277.717-.596.916-.956.199-.374.298-.776.298-1.205 0-.582-.159-1.102-.478-1.559-.318-.457-.756-.88-1.313-1.267-.544-.388-1.194-.763-1.95-1.123-.757-.36-1.573-.727-2.448-1.101-2.229-.97-3.894-2.154-4.996-3.553-1.088-1.4-1.632-3.09-1.632-5.07 0-1.552.299-2.882.896-3.99.597-1.123 1.406-2.044 2.428-2.764 1.035-.72 2.229-1.247 3.582-1.58 1.354-.346 2.787-.52 4.299-.52 1.486 0 2.8.098 3.941.292 1.154.18 2.215.464 3.184.852v6.213c-.478-.346-1.002-.651-1.572-.914-.558-.264-1.135-.478-1.732-.645-.597-.18-1.194-.311-1.791-.394-.584-.083-1.141-.125-1.672-.125-.729 0-1.393.076-1.99.229-.597.138-1.101.339-1.512.602-.412.263-.73.582-.956.956-.225.36-.338.769-.338 1.226 0 .499.126.95.378 1.35.252.389.61.763 1.075 1.123.464.346 1.028.693 1.691 1.039.664.332 1.413.679 2.249 1.039 1.141.499 2.163 1.032 3.065 1.6.916.554 1.698 1.185 2.349 1.891.65.707 1.147 1.517 1.492 2.431.345.9.518 1.954.518 3.159 0 1.662-.305 3.062-.916 4.198-.597 1.122-1.413 2.036-2.448 2.742-1.035.693-2.242 1.192-3.622 1.497-1.366.305-2.813.457-4.338.457-1.566 0-3.059-.139-4.478-.416-1.407-.277-2.627-.692-3.662-1.247zM162.601 50.474h-6.429V20.676h6.429v29.798zM167.795 49.331v-6.65c1.154 1.012 2.408 1.774 3.761 2.287 1.354.498 2.72.748 4.1.748.81 0 1.513-.077 2.11-.229.61-.152 1.114-.36 1.512-.623.412-.277.717-.596.916-.956.199-.374.298-.776.298-1.205 0-.582-.159-1.102-.477-1.559-.319-.457-.757-.88-1.314-1.267-.544-.388-1.194-.763-1.95-1.123s-1.572-.727-2.448-1.101c-2.229-.97-3.894-2.154-4.995-3.553-1.088-1.4-1.632-3.09-1.632-5.07 0-1.552.298-2.882.895-3.99.597-1.123 1.407-2.044 2.428-2.764 1.035-.72 2.229-1.247 3.583-1.58 1.353-.346 2.786-.52 4.298-.52 1.486 0 2.8.098 3.941.292 1.154.18 2.216.464 3.184.852v6.213c-.478-.346-1.002-.651-1.572-.914-.557-.264-1.135-.478-1.732-.645-.597-.18-1.194-.311-1.791-.394-.584-.083-1.141-.125-1.671-.125-.73 0-1.394.076-1.991.229-.597.138-1.101.339-1.512.602-.411.263-.73.582-.955.956-.226.36-.339.769-.339 1.226 0 .499.126.95.378 1.35.252.389.611.763 1.075 1.123.464.346 1.028.693 1.692 1.039.663.332 1.413.679 2.249 1.039 1.141.499 2.162 1.032 3.064 1.6.916.554 1.699 1.185 2.349 1.891.65.707 1.147 1.517 1.492 2.431.345.9.518 1.954.518 3.159 0 1.662-.305 3.062-.916 4.198-.597 1.122-1.413 2.036-2.447 2.742-1.035.693-2.243 1.192-3.623 1.497-1.366.305-2.812.457-4.338.457-1.566 0-3.058-.139-4.478-.416-1.406-.277-2.627-.692-3.662-1.247zM211.997 26.14h-8.14v24.334h-6.448V26.141h-8.1v-5.465h22.688v5.465z"/>
    <defs>
        <linearGradient id="paint0_linear" x1="56.339" x2="29.5" y1="56.211" y2="29.091" gradientUnits="userSpaceOnUse">
            <stop offset=".19" stop-color="#8B0E1A"/>
            <stop offset=".519" stop-color="#C4161C"/>
            <stop offset="1" stop-color="#ED1C24"/>
        </linearGradient>
        <linearGradient id="paint1_linear" x1="56.339" x2="29.5" y1="56.211" y2="29.091" gradientUnits="userSpaceOnUse">
            <stop offset=".19" stop-color="#8B0E1A"/>
            <stop offset=".519" stop-color="#C4161C"/>
            <stop offset="1" stop-color="#ED1C24"/>
        </linearGradient>
        <linearGradient id="paint2_linear" x1="31.413" x2="31.413" y1="38.232" y2="2.356" gradientUnits="userSpaceOnUse">
            <stop offset=".19" stop-color="#8B0E1A"/>
            <stop offset=".519" stop-color="#C4161C"/>
            <stop offset="1" stop-color="#ED1C24"/>
        </linearGradient>
        <linearGradient id="paint3_linear" x1="0" x2="62.781" y1="36.261" y2="36.261" gradientUnits="userSpaceOnUse">
            <stop offset=".19" stop-color="#8B0E1A"/>
            <stop offset=".519" stop-color="#C4161C"/>
            <stop offset="1" stop-color="#ED1C24"/>
        </linearGradient>
        <linearGradient id="paint4_linear" x1="19.877" x2="19.877" y1="76.007" y2="15.104" gradientUnits="userSpaceOnUse">
            <stop offset=".19" stop-color="#8B0E1A"/>
            <stop offset=".519" stop-color="#C4161C"/>
            <stop offset="1" stop-color="#ED1C24"/>
        </linearGradient>
    </defs>
</svg>
