<svg xmlns="http://www.w3.org/2000/svg" width="24" height="24" fill="none" viewBox="0 0 24 24">
    <path fill="#42526E" d="M2.753 11.996l2.5.011c.414.002.748.34.746.753-.002.38-.285.693-.651.74l-.102.007-1.746-.009v5.501L5.25 19c.379 0 .692.282.742.648L6 19.75c0 .38-.282.694-.648.743l-.102.007h-2.5c-.379 0-.693-.282-.742-.648L2 19.75v-7.004c0-.38.284-.695.651-.744l.102-.006zM21.245 17.5c.414 0 .75.336.75.75 0 .38-.282.694-.648.743l-.102.007H7.748c-.414 0-.75-.336-.75-.75 0-.38.283-.694.649-.743l.101-.007h13.497zm0-4c.414 0 .75.336.75.75 0 .38-.282.694-.648.743l-.102.007H7.748c-.414 0-.75-.336-.75-.75 0-.38.283-.694.649-.743l.101-.007h13.497zM2.753 2.5l2.5.011c.414.002.748.34.746.753-.002.38-.285.693-.651.74l-.102.007L3.5 4.003v5.492h1.75c.379 0 .692.282.742.648l.007.102c0 .38-.282.694-.648.743l-.102.007h-2.5c-.379 0-.693-.282-.742-.648L2 10.245V3.25c0-.38.284-.695.651-.744l.102-.006zm18.492 5.504c.414 0 .75.336.75.75 0 .38-.282.694-.648.743l-.102.007H7.748c-.414 0-.75-.335-.75-.75 0-.38.283-.693.649-.743l.101-.007h13.497zm.005-4c.414 0 .75.336.75.75 0 .38-.282.694-.648.743l-.102.007H7.754c-.414 0-.75-.335-.75-.75 0-.38.282-.693.648-.743l.102-.007H21.25z"/>
</svg>
