<svg xmlns="http://www.w3.org/2000/svg" width="115" height="27" fill="none" viewBox="0 0 115 27">
    <path fill="#091E42" fill-opacity=".31" d="M8.344 11.252c0 .523-.126 1.013-.378 1.47-.243.457-.63.826-1.162 1.106-.523.28-1.185.42-1.988.42H3.178V18h-1.96V8.228h3.598c.756 0 1.4.13 1.932.392.532.261.929.62 1.19 1.078.27.457.406.975.406 1.554zm-3.612 1.414c.541 0 .943-.121 1.204-.364.261-.252.392-.602.392-1.05 0-.952-.532-1.428-1.596-1.428H3.178v2.842h1.554zm8.447 5.46c-.746 0-1.418-.163-2.015-.49-.598-.336-1.07-.807-1.414-1.414-.336-.607-.504-1.307-.504-2.1 0-.793.172-1.493.518-2.1.354-.607.835-1.073 1.442-1.4.606-.336 1.283-.504 2.03-.504.746 0 1.423.168 2.03.504.606.327 1.082.793 1.428 1.4.354.607.532 1.307.532 2.1 0 .793-.182 1.493-.546 2.1-.355.607-.84 1.078-1.457 1.414-.606.327-1.288.49-2.043.49zm0-1.708c.355 0 .687-.084.995-.252.317-.177.569-.439.756-.784.186-.345.28-.765.28-1.26 0-.737-.197-1.302-.589-1.694-.382-.401-.854-.602-1.414-.602-.56 0-1.03.2-1.414.602-.373.392-.56.957-.56 1.694s.182 1.307.546 1.708c.374.392.84.588 1.4.588zm16.236-6.174L27.147 18h-2.114l-1.414-5.418L22.205 18h-2.128l-2.282-7.756h1.988l1.372 5.908 1.484-5.908h2.072l1.456 5.894 1.372-5.894h1.876zm8.27 3.71c0 .28-.018.532-.055.756h-5.67c.046.56.242.999.588 1.316.345.317.77.476 1.274.476.728 0 1.246-.313 1.554-.938h2.114c-.224.747-.654 1.363-1.288 1.848-.635.476-1.414.714-2.338.714-.747 0-1.419-.163-2.016-.49-.588-.336-1.05-.807-1.386-1.414-.327-.607-.49-1.307-.49-2.1 0-.803.163-1.507.49-2.114.326-.607.784-1.073 1.372-1.4.588-.327 1.264-.49 2.03-.49.737 0 1.395.159 1.974.476.588.317 1.04.77 1.358 1.358.326.579.49 1.246.49 2.002zm-2.03-.56c-.009-.504-.19-.905-.545-1.204-.355-.308-.789-.462-1.302-.462-.486 0-.896.15-1.232.448-.327.29-.528.695-.602 1.218h3.682zm5.421-1.946c.252-.41.58-.733.98-.966.411-.233.878-.35 1.4-.35v2.058h-.518c-.616 0-1.082.145-1.4.434-.308.29-.462.793-.462 1.512V18h-1.96v-7.756h1.96v1.204zm10.91 2.506c0 .28-.018.532-.055.756h-5.67c.046.56.242.999.587 1.316.346.317.77.476 1.275.476.727 0 1.245-.313 1.553-.938h2.114c-.224.747-.653 1.363-1.288 1.848-.634.476-1.413.714-2.338.714-.746 0-1.418-.163-2.016-.49-.588-.336-1.05-.807-1.386-1.414-.326-.607-.49-1.307-.49-2.1 0-.803.164-1.507.49-2.114.327-.607.785-1.073 1.373-1.4.587-.327 1.264-.49 2.03-.49.737 0 1.395.159 1.974.476.587.317 1.04.77 1.357 1.358.327.579.49 1.246.49 2.002zm-2.03-.56c-.009-.504-.19-.905-.546-1.204-.354-.308-.788-.462-1.301-.462-.486 0-.897.15-1.233.448-.326.29-.527.695-.601 1.218h3.681zm2.957.7c0-.784.154-1.48.462-2.086.318-.607.747-1.073 1.288-1.4.542-.327 1.144-.49 1.806-.49.504 0 .985.112 1.442.336.457.215.822.504 1.092.868V7.64h1.988V18h-1.988v-1.148c-.242.383-.583.69-1.022.924-.439.233-.947.35-1.526.35-.653 0-1.25-.168-1.792-.504-.541-.336-.97-.807-1.288-1.414-.308-.616-.462-1.32-.462-2.114zm6.104.028c0-.476-.093-.882-.28-1.218-.187-.345-.439-.607-.756-.784-.317-.187-.658-.28-1.022-.28s-.7.089-1.008.266c-.308.177-.56.439-.756.784-.187.336-.28.737-.28 1.204 0 .467.093.877.28 1.232.196.345.448.611.756.798.318.187.654.28 1.008.28.364 0 .705-.089 1.022-.266.317-.187.57-.448.756-.784.187-.345.28-.756.28-1.232zm12.768-1.134c.551.103 1.004.378 1.358.826.355.448.532.961.532 1.54 0 .523-.13.985-.392 1.386-.252.392-.62.7-1.106.924-.485.224-1.059.336-1.722.336h-4.214V8.228h4.032c.663 0 1.232.107 1.708.322.486.215.85.513 1.092.896.252.383.378.817.378 1.302 0 .57-.154 1.045-.462 1.428-.298.383-.7.653-1.204.812zm-3.584-.728h1.792c.467 0 .826-.103 1.078-.308.252-.215.378-.518.378-.91s-.126-.695-.378-.91c-.252-.215-.61-.322-1.078-.322h-1.792v2.45zm1.974 4.144c.476 0 .845-.112 1.106-.336.271-.224.406-.541.406-.952 0-.42-.14-.747-.42-.98-.28-.243-.658-.364-1.134-.364h-1.932v2.632h1.974zm12.483-6.16l-4.802 11.424h-2.087l1.68-3.864-3.108-7.56h2.199l2.001 5.418 2.03-5.418h2.087z"/>
    <path fill="#C4161C" d="M105.142 2.557l4.703 2.647v5.431l-4.711-2.622.008-5.456z"/>
    <path fill="#ED1C24" d="M109.845 5.204l4.712-2.622-.009 5.431-4.703 2.647V5.204z"/>
    <path fill="#8B0E1A" d="M105.142 2.647L109.845 0l4.712 2.647-4.712 2.646-4.703-2.646z"/>
    <path fill="#C4161C" d="M105.192 13.323l4.72 2.646v5.294l-4.72-2.688v-5.252z"/>
    <path fill="#ED1C24" d="M100.456 21.214l4.728-2.639v5.286l-4.728 2.646v-5.293z"/>
    <path fill="#8B0E1A" d="M95.728 18.616l4.728-2.663 4.728 2.622-4.728 2.63-4.728-2.589z"/>
    <path fill="#C4161C" d="M91 15.856l4.728 2.76v5.35L91 21.287v-5.431z"/>
    <path fill="#8B0E1A" d="M91 10.7l4.728-2.654 4.728 2.67-4.728 2.64L91 10.7z"/>
    <path fill="#ED1C24" d="M95.728 13.33l4.728-2.63v5.253l-4.728 2.663v-5.285zM109.912 15.961l4.711-2.63v5.285l-4.711 2.639V15.96z"/>
    <path fill="#C4161C" d="M105.184 18.567l4.728 2.655v5.293l-4.728-2.687v-5.26z"/>
    <path fill="#ED1C24" d="M109.912 21.263l4.711-2.639v5.285l-4.711 2.647v-5.293z"/>
    <path fill="#8B0E1A" d="M105.201 13.339l4.711-2.655 4.711 2.671-4.711 2.63-4.711-2.646z"/>
</svg>
