<svg width="58" height="58" viewBox="0 0 58 58" fill="none" xmlns="http://www.w3.org/2000/svg">
<mask id="mask0" mask-type="alpha" maskUnits="userSpaceOnUse" x="5" y="4" width="48" height="49">
<path fill-rule="evenodd" clip-rule="evenodd" d="M5.02051 28.7753C5.02051 15.5387 15.7393 4.79588 28.9759 4.79588C42.2365 4.79588 52.9793 15.5387 52.9793 28.7753C52.9793 42.0119 42.2365 52.7547 28.9759 52.7547C15.7393 52.7547 5.02051 42.0119 5.02051 28.7753ZM20.6072 19.1835C18.6207 19.1835 17.0103 20.7939 17.0103 22.7804C17.0103 24.7669 18.6207 26.3773 20.6072 26.3773C22.5937 26.3773 24.2041 24.7669 24.2041 22.7804C24.2041 20.7939 22.5937 19.1835 20.6072 19.1835ZM37.3927 19.1835C35.4062 19.1835 33.7958 20.7939 33.7958 22.7804C33.7958 24.7669 35.4062 26.3773 37.3927 26.3773C39.3792 26.3773 40.9896 24.7669 40.9896 22.7804C40.9896 20.7939 39.3792 19.1835 37.3927 19.1835ZM29 47.9588C18.4011 47.9588 9.81644 39.3742 9.81644 28.7753C9.81644 18.1764 18.4011 9.59176 29 9.59176C39.5989 9.59176 48.1835 18.1764 48.1835 28.7753C48.1835 39.3742 39.5989 47.9588 29 47.9588ZM37.1049 33.8829C37.6085 33.0436 38.7355 32.7798 39.5748 33.3074C40.4141 33.8349 40.6778 34.938 40.1503 35.7773C37.7044 39.638 33.556 41.964 28.9999 41.964C24.4438 41.964 20.2953 39.6619 17.8494 35.7533C17.3219 34.914 17.5857 33.811 18.425 33.2834C19.2642 32.7559 20.3673 33.0196 20.8948 33.8589C22.6693 36.6885 25.6907 38.3671 28.9999 38.3671C32.309 38.3671 35.3304 36.6885 37.1049 33.8829Z" fill="black"/>
</mask>
<g mask="url(#mask0)">
<rect x="0.224609" width="57.5506" height="57.5506" fill="#C4161C"/>
</g>
</svg>
