<svg xmlns="http://www.w3.org/2000/svg" width="24" height="24" fill="none" viewBox="0 0 24 24">
    <path fill="#263238" d="M7.25 4.5h3.5c.414 0 .75.336.75.75 0 .38-.283.694-.649.743L10.75 6h-3.5c-1.18 0-2.146.906-2.242 2.061L5 8.22l.003 8.53c0 1.191.926 2.166 2.097 2.245l.154.005 8.498-.012c1.19-.001 2.163-.926 2.242-2.096l.005-.154v-3.506c0-.414.336-.75.75-.75.38 0 .693.282.743.648l.007.102v3.506c0 2.003-1.57 3.639-3.546 3.745l-.2.005-8.495.012-.203-.005c-1.913-.1-3.446-1.632-3.547-3.545l-.005-.2-.002-8.497.004-.203c.1-1.913 1.634-3.446 3.546-3.545l.2-.005h3.499-3.5zm6.498-1.499h6.554l.1.015.1.028.057.024c.053.023.104.054.152.09l.07.063.083.099.054.09.04.09.018.065.014.063.01.095v6.532c0 .414-.336.75-.75.75-.38 0-.694-.282-.743-.648l-.007-.102-.001-4.694-7.22 7.224c-.265.266-.682.29-.976.072l-.084-.072c-.266-.266-.29-.683-.073-.977l.073-.084 7.218-7.223h-4.689c-.38 0-.693-.282-.743-.648l-.007-.102c0-.38.282-.693.648-.743l.102-.007z"/>
</svg>
