<svg xmlns="http://www.w3.org/2000/svg" width="24" height="24" fill="none" viewBox="0 0 24 24">
    <path fill="#263238" d="M12.81 13L4 13c-1.104 0-2 .896-2 2V16.5l.005.23C2.165 20.044 5.778 21 8.5 21c1.03 0 2.189-.137 3.239-.487-.23-.44-.413-.91-.537-1.403-.698.224-1.52.359-2.385.385L8.5 19.5l-.317-.005c-1.263-.039-2.44-.308-3.266-.753C3.95 18.222 3.5 17.509 3.5 16.5v-1.501l.01-.101c.025-.125.093-.209.136-.253.044-.043.129-.11.253-.136l.101-.01h7.732c.287-.55.651-1.055 1.077-1.499zM13 6.5C13 4.015 10.985 2 8.5 2S4 4.015 4 6.5 6.015 11 8.5 11 13 8.985 13 6.5zm-7.5 0c0-1.654 1.346-3 3-3s3 1.346 3 3-1.346 3-3 3-3-1.346-3-3zm15.5 1C21 5.567 19.433 4 17.5 4S14 5.567 14 7.5s1.567 3.5 3.5 3.5S21 9.433 21 7.5zm-5.5 0c0-1.103.897-2 2-2s2 .897 2 2-.897 2-2 2-2-.897-2-2zm7.5 10c0 3.038-2.462 5.5-5.5 5.5S12 20.538 12 17.5s2.462-5.5 5.5-5.5 5.5 2.462 5.5 5.5zM17.5 14c-.276 0-.5.224-.5.5v4c0 .276.224.5.5.5s.5-.224.5-.5v-4c0-.276-.224-.5-.5-.5zm0 7.125c.345 0 .625-.28.625-.625s-.28-.625-.625-.625-.625.28-.625.625.28.625.625.625z"/>
</svg>
