<svg xmlns="http://www.w3.org/2000/svg" width="24" height="24" fill="none" viewBox="0 0 24 24">
    <path fill="#696969" d="M11.313 15.5c.173-.534.412-1.037.709-1.5h-7.77c-1.241 0-2.248 1.007-2.248 2.249v.578c0 .892.318 1.756.898 2.435 1.566 1.834 3.952 2.74 7.098 2.74.931 0 1.796-.08 2.593-.24-.36-.413-.667-.872-.914-1.367-.524.07-1.083.106-1.679.106-2.738 0-4.704-.746-5.957-2.213-.348-.408-.54-.926-.54-1.462v-.577c0-.414.336-.75.75-.75h7.06zM10 2.005c2.762 0 5 2.238 5 5 0 2.761-2.238 5-5 5-2.761 0-5-2.239-5-5 0-2.762 2.239-5 5-5zm0 1.5c-1.933 0-3.5 1.567-3.5 3.5s1.567 3.5 3.5 3.5 3.5-1.567 3.5-3.5-1.567-3.5-3.5-3.5zM17.5 12c3.038 0 5.5 2.462 5.5 5.5S20.538 23 17.5 23 12 20.538 12 17.5s2.462-5.5 5.5-5.5zm2 5.5h-2V15c0-.276-.224-.5-.5-.5s-.5.224-.5.5v3c0 .276.224.5.5.5h2.5c.276 0 .5-.224.5-.5s-.224-.5-.5-.5z"/>
</svg>
