<svg xmlns="http://www.w3.org/2000/svg" width="24" height="24" fill="none" viewBox="0 0 24 24">
    <path fill="#42526E" d="M12 5c4.694 0 8.5 3.806 8.5 8.5S16.694 22 12 22s-8.5-3.806-8.5-8.5S7.306 5 12 5zm0 1.5c-3.866 0-7 3.134-7 7s3.134 7 7 7 7-3.134 7-7-3.134-7-7-7zM12 8c.38 0 .694.282.743.648l.007.102v4.5c0 .414-.336.75-.75.75-.38 0-.694-.282-.743-.648l-.007-.102v-4.5c0-.414.336-.75.75-.75zm7.147-2.886l.083.06 1.158.964c.319.265.362.738.097 1.056-.243.292-.66.352-.974.156l-.082-.06-1.159-.964c-.318-.265-.361-.737-.096-1.056.242-.292.66-.352.973-.156zM14.25 2.5c.414 0 .75.336.75.75 0 .38-.282.693-.648.743L14.25 4h-4.5C9.336 4 9 3.664 9 3.25c0-.38.282-.693.648-.743L9.75 2.5h4.5z"/>
</svg>
