<svg width="58" height="58" viewBox="0 0 58 58" fill="none" xmlns="http://www.w3.org/2000/svg">
<mask id="mask0" mask-type="alpha" maskUnits="userSpaceOnUse" x="5" y="4" width="49" height="49">
<path fill-rule="evenodd" clip-rule="evenodd" d="M29.201 4.79588C15.9644 4.79588 5.24561 15.5147 5.24561 28.7753C5.24561 42.0359 15.9644 52.7547 29.201 52.7547C42.4377 52.7547 53.2044 42.0359 53.2044 28.7753C53.2044 15.5147 42.4616 4.79588 29.201 4.79588ZM21.7432 23.8355L23.0141 25.1064C23.7095 25.8018 24.8605 25.8018 25.5559 25.1064C26.2513 24.411 26.2513 23.26 25.5559 22.5646L23.4457 20.4544C22.9977 20.0054 22.3895 19.7531 21.7552 19.7531C21.1209 19.7531 20.5126 20.0054 20.0646 20.4544L17.9305 22.5646C17.2351 23.26 17.2351 24.411 17.9305 25.1064C18.6259 25.8018 19.7769 25.8018 20.4723 25.1064L21.7432 23.8355ZM29.225 41.964C34.0928 41.964 38.3372 39.3022 40.6152 35.3696C41.0708 34.5783 40.4953 33.5712 39.5601 33.5712H18.8899C17.9787 33.5712 17.3792 34.5783 17.8348 35.3696C20.1128 39.3022 24.3572 41.964 29.225 41.964ZM35.4358 25.1064C34.7404 25.8018 33.5894 25.8018 32.894 25.1064C32.1986 24.411 32.1986 23.26 32.918 22.5646L35.0282 20.4544C35.4762 20.0054 36.0844 19.7531 36.7187 19.7531C37.353 19.7531 37.9613 20.0054 38.4093 20.4544L40.5195 22.5646C41.2149 23.26 41.2149 24.411 40.5195 25.1064C39.8241 25.8018 38.673 25.8018 37.9776 25.1064L36.7067 23.8355L35.4358 25.1064ZM10.0415 28.7753C10.0415 39.3742 18.6262 47.9588 29.2251 47.9588C39.8239 47.9588 48.4086 39.3742 48.4086 28.7753C48.4086 18.1764 39.8239 9.59176 29.2251 9.59176C18.6262 9.59176 10.0415 18.1764 10.0415 28.7753Z" fill="black"/>
</mask>
<g mask="url(#mask0)">
<rect x="0.449707" width="57.5506" height="57.5506" fill="#858C94"/>
</g>
</svg>
