<svg width="58" height="58" viewBox="0 0 58 58" fill="none" xmlns="http://www.w3.org/2000/svg">
<mask id="mask0" mask-type="alpha" maskUnits="userSpaceOnUse" x="5" y="4" width="49" height="49">
<path fill-rule="evenodd" clip-rule="evenodd" d="M5.13281 28.7753C5.13281 15.5147 15.8516 4.79588 29.0882 4.79588C42.3488 4.79588 53.0916 15.5147 53.0916 28.7753C53.0916 42.0359 42.3249 52.7547 29.0882 52.7547C15.8516 52.7547 5.13281 42.0359 5.13281 28.7753ZM20.3595 27.5044L21.6304 26.2335L22.9013 27.5044C23.5967 28.1998 24.7477 28.1998 25.4431 27.5044C26.1385 26.809 26.1385 25.658 25.4431 24.9626L24.1722 23.6917L25.4431 22.4207C26.1385 21.7253 26.1385 20.5743 25.4431 19.8789C24.7477 19.1835 23.5967 19.1835 22.9013 19.8789L21.6304 21.1498L20.3595 19.8789C19.6641 19.1835 18.5131 19.1835 17.8177 19.8789C17.1223 20.5743 17.1223 21.7253 17.8177 22.4207L19.0886 23.6917L17.8177 24.9626C17.1223 25.658 17.1223 26.809 17.8177 27.5044C18.5131 28.1998 19.6641 28.1998 20.3595 27.5044ZM29.1122 32.3722C24.2444 32.3722 20.0001 35.0339 17.722 38.9665C17.2664 39.7578 17.8659 40.765 18.7771 40.765H39.4473C40.3586 40.765 40.9581 39.7578 40.5024 38.9665C38.2244 35.0339 33.98 32.3722 29.1122 32.3722ZM29.1123 47.9588C18.5134 47.9588 9.92874 39.3742 9.92874 28.7753C9.92874 18.1764 18.5134 9.59176 29.1123 9.59176C39.7112 9.59176 48.2958 18.1764 48.2958 28.7753C48.2958 39.3742 39.7112 47.9588 29.1123 47.9588ZM36.5937 21.1498L37.8646 19.8789C38.56 19.1835 39.711 19.1835 40.4064 19.8789C41.1018 20.5743 41.1018 21.7253 40.4064 22.4207L39.1355 23.6917L40.4064 24.9626C41.1018 25.658 41.1018 26.809 40.4064 27.5044C39.711 28.1998 38.56 28.1998 37.8646 27.5044L36.5937 26.2335L35.3228 27.5044C34.6274 28.1998 33.4764 28.1998 32.781 27.5044C32.0856 26.809 32.0856 25.658 32.781 24.9626L34.0519 23.6917L32.781 22.4207C32.0856 21.7253 32.0856 20.5743 32.781 19.8789C33.4764 19.1835 34.6274 19.1835 35.3228 19.8789L36.5937 21.1498Z" fill="black"/>
</mask>
<g mask="url(#mask0)">
<rect x="0.336914" width="57.5506" height="57.5506" fill="#858C94"/>
</g>
</svg>
